<svg xmlns="http://www.w3.org/2000/svg" xmlns:xlink="http://www.w3.org/1999/xlink" version="1.1" id="Layer_1" x="0px" y="0px" viewBox="0 0 85.7 16.1" style="enable-background:new 0 0 85.7 16.1;" xml:space="preserve">
<style type="text/css">
	.st0{fill:#FFFFFF;}
</style>
<g>
	<path class="st0" d="M39.5,9.2c-0.7,0-1.3,0-2,0c-0.1,0-0.2,0.1-0.2,0.2c-0.3,1.5-0.6,3.1-1,4.6c-0.1,0.6-0.3,1.1-0.4,1.7   c0,0.2-0.1,0.2-0.3,0.2c-0.7,0-1.3,0-2,0c-0.2,0-0.3-0.1-0.2-0.3c0.2-0.8,0.3-1.6,0.5-2.4c0.3-1.2,0.5-2.4,0.8-3.6   c0.3-1.2,0.5-2.4,0.7-3.6c0.3-1.2,0.5-2.4,0.8-3.7c0.2-0.7,0.3-1.4,0.4-2.2c0-0.2,0.2-0.4,0.4-0.4c0.6,0,1.2,0,1.8,0   c0.3,0,0.4,0.1,0.3,0.4C39.2,0.9,39.1,1.5,39,2c-0.3,1.4-0.6,2.7-0.9,4.1c0,0.2,0,0.3-0.1,0.6c0.1,0,0.2,0,0.3,0c0.5,0,0.9,0,1.4,0   c0.3,0,0.4-0.1,0.4-0.4c0.2-1,0.4-2,0.6-3c0.2-1,0.4-2,0.6-3C41.5,0.1,41.6,0,41.9,0c0.6,0,1.1,0,1.7,0C44,0,44,0.1,43.9,0.4   c-0.2,0.8-0.3,1.7-0.5,2.5c-0.2,0.9-0.4,1.9-0.6,2.8c-0.4,2.1-0.9,4.1-1.3,6.2c-0.2,0.7-0.3,1.4-0.4,2.1c-0.1,0.5-0.2,1.1-0.3,1.6   c-0.1,0.3-0.2,0.4-0.5,0.4c-0.6,0-1.1,0-1.7,0c-0.3,0-0.4-0.1-0.3-0.4c0.2-0.9,0.4-1.8,0.6-2.7c0.1-0.7,0.3-1.4,0.4-2   C39.3,10.4,39.4,9.8,39.5,9.2z"/>
	<path class="st0" d="M23.7,13.3c-0.7,0-1.4,0-2,0c-0.1,0-0.1,0.1-0.2,0.2c-0.2,0.7-0.5,1.4-0.7,2.1C20.7,16,20.7,16,20.2,16   c-0.6,0-1.1,0-1.7,0c-0.2,0-0.4,0-0.3-0.3c0.5-1.4,1-2.8,1.5-4.3c0.3-0.9,0.7-1.9,1-2.8c0.4-1,0.7-2.1,1.1-3.1   c0.4-1.1,0.8-2.2,1.2-3.3c0.2-0.7,0.5-1.3,0.7-2C23.8,0.2,24,0,24.1,0c0.9,0,1.8,0,2.7,0c0.2,0,0.3,0.1,0.3,0.3   C27,1.2,27,2.1,26.9,3c-0.1,0.8-0.1,1.7-0.2,2.5c-0.1,1-0.2,2.1-0.2,3.1c0,0.4,0,0.9-0.1,1.3c-0.1,1.3-0.2,2.6-0.3,4   c0,0.6-0.1,1.2-0.1,1.8c0,0.2-0.1,0.3-0.3,0.3c-0.7,0-1.3,0-2,0c-0.2,0-0.3-0.1-0.3-0.3c0.1-0.7,0.1-1.3,0.2-2   C23.7,13.6,23.7,13.5,23.7,13.3z M22.4,10.8c0.4,0,0.8,0,1.2,0c0.2,0,0.3,0,0.3-0.3c0.1-0.6,0.1-1.3,0.2-1.9   c0.1-0.8,0.2-1.5,0.2-2.3c0.1-0.6,0.1-1.3,0.2-1.9c0,0,0,0,0,0C23.8,6.6,23.1,8.7,22.4,10.8z"/>
	<path class="st0" d="M84,0c0.4,0,0.8,0,1.3,0c0.3,0,0.4,0.1,0.4,0.4c-0.1,1.2-0.2,2.3-0.3,3.5c-0.1,0.8-0.1,1.6-0.1,2.4   c-0.1,1.1-0.2,2.2-0.2,3.2c-0.1,1-0.1,2-0.2,3c-0.1,1.1-0.2,2.2-0.3,3.3c0,0.2-0.1,0.3-0.4,0.3c-0.6,0-1.2,0-1.8,0   C82.1,16,82,16,82,15.7c0.1-0.7,0.1-1.4,0.2-2.2c0-0.2-0.1-0.3-0.3-0.3c-0.5,0-1.1,0-1.6,0c-0.1,0-0.3,0.2-0.3,0.3   c-0.3,0.7-0.5,1.5-0.8,2.2C79.3,16,79.2,16,79,16c-0.6,0-1.3,0-1.9,0c-0.2,0-0.3-0.1-0.2-0.3c0.7-2,1.4-3.9,2.1-5.9   c0.5-1.4,1-2.8,1.5-4.1c0.6-1.8,1.3-3.5,1.9-5.3C82.4,0.1,82.5,0,82.8,0C83.2,0,83.6,0,84,0C84,0,84,0,84,0z M81,10.8   c0.5,0,0.9,0,1.3,0c0.1,0,0.2-0.1,0.2-0.2c0.1-0.6,0.1-1.2,0.2-1.8c0.1-0.6,0.1-1.3,0.2-1.9c0.1-0.9,0.2-1.8,0.3-2.6c0,0,0,0,0,0   C82.4,6.5,81.7,8.6,81,10.8z"/>
	<path class="st0" d="M77.1,5.3c-0.3,0-0.6,0-0.8,0c-0.4,0-0.4-0.1-0.3-0.4c0.1-0.5,0.2-1,0.3-1.5c0-0.3,0.1-0.6-0.3-0.7   c-0.3-0.1-0.6-0.1-0.9,0c-0.4,0.1-0.5,0.5-0.6,0.8c-0.3,1.2-0.5,2.4-0.8,3.5c-0.2,1.1-0.5,2.1-0.7,3.2c-0.2,0.9-0.4,1.8-0.5,2.7   c0,0.3,0,0.6,0.3,0.7c0.3,0.2,1,0.1,1.2-0.2c0.1-0.2,0.3-0.4,0.3-0.7c0.2-0.6,0.3-1.1,0.4-1.7c0-0.1,0.2-0.2,0.3-0.2   c0.7,0,1.4,0,2,0c0.2,0,0.3,0.1,0.2,0.3c-0.3,1-0.4,2.1-0.9,3c-0.6,1.1-1.4,1.8-2.7,1.9c-0.4,0-0.8,0.1-1.2,0.1   c-0.6-0.1-1.2-0.1-1.7-0.6c-0.7-0.6-0.8-1.4-0.7-2.3c0.3-1.5,0.6-3,0.9-4.4c0.4-1.7,0.7-3.4,1.1-5.1c0.2-1,0.6-2,1.4-2.7   c0.6-0.5,1.2-0.8,2-0.9c0.6-0.1,1.1,0,1.6,0c0.7,0.1,1.7,0.6,1.8,1.9c0.1,0.9-0.1,1.7-0.3,2.6c0,0,0,0.1,0,0.1   c-0.2,0.6-0.2,0.6-0.7,0.6C77.5,5.3,77.3,5.3,77.1,5.3C77.1,5.3,77.1,5.3,77.1,5.3z"/>
	<path class="st0" d="M52.4,13.5c0.5,0,1,0,1.5,0c0.6,0,1.2,0,1.8,0c0.2,0,0.3,0.1,0.2,0.3c-0.2,0.6-0.3,1.3-0.4,2   c0,0.2-0.1,0.3-0.4,0.3c-1.8,0-3.6,0-5.4,0c-0.3,0-0.4-0.1-0.3-0.4c0.2-0.9,0.4-1.9,0.6-2.8c0.3-1.3,0.5-2.7,0.8-4   c0.3-1.5,0.7-3.1,1-4.6c0.3-1.2,0.5-2.4,0.7-3.6C52.7,0,52.8,0,53.2,0c1.7,0,3.4,0,5.1,0c0.5,0,0.5,0,0.4,0.5   c-0.1,0.6-0.2,1.1-0.4,1.7c-0.1,0.3-0.2,0.4-0.5,0.4c-0.9,0-1.8,0-2.7,0c-0.4,0-0.5,0-0.6,0.5c-0.2,1.1-0.4,2.2-0.7,3.2   c-0.1,0.3,0,0.4,0.3,0.4c0.8,0,1.5,0,2.3,0c0.2,0,0.3,0,0.3,0.3c-0.2,0.6-0.3,1.3-0.4,1.9c0,0.2-0.2,0.3-0.4,0.3   c-0.8,0-1.5,0-2.3,0c-0.2,0-0.3,0.1-0.4,0.3c-0.2,1-0.4,2-0.6,3C52.6,12.8,52.5,13.1,52.4,13.5z"/>
	<path class="st0" d="M13.2,4.3c-1.9,1.2-3.8,2.4-5.7,3.6C7.7,8,7.8,8.2,7.9,8.3C9,9.2,10,10.1,11,11c0.3,0.3,0.3,0.3,0,0.5   c-2.1,1.3-4.1,2.5-6.2,3.8c-0.2,0.2-0.5,0.3-0.7,0.5c-0.3,0.2-0.6,0.3-0.9,0.3c-0.9,0-1.9,0-2.8,0C0.3,16,0.1,16,0,16   c2.6-1.7,5.2-3.3,7.8-5c-0.4-0.3-0.7-0.6-1.1-0.9C5.9,9.4,5.1,8.7,4.2,8c-0.3-0.3-0.3-0.3,0-0.5c1.8-1.1,3.6-2.3,5.4-3.4   c0,0,0,0,0,0C8.2,2.7,6.6,1.4,5.1,0.1c0,0,0-0.1,0-0.1c0.1,0,0.2,0,0.3,0C6.3,0,7.1,0,8,0c0.2,0,0.4,0.1,0.5,0.2   c1.6,1.3,3.1,2.7,4.6,4C13.2,4.2,13.2,4.2,13.2,4.3z"/>
	<path class="st0" d="M10.2,0.1C10.3,0,10.4,0,10.5,0c0.8,0,1.7,0,2.5,0c0.1,0,0.3,0.1,0.4,0.1c1.7,1.5,3.4,3,5.1,4.5   c0,0,0.1,0.1,0.2,0.1c0,0,0,0.1,0,0.1C16.9,6,14.9,7.2,13,8.4c0.5,0.4,1,0.8,1.4,1.2c0.7,0.6,1.5,1.3,2.2,1.9   c0.2,0.1,0.1,0.3,0,0.4c-1.5,0.9-2.9,1.8-4.4,2.7c-0.6,0.4-1.3,0.8-1.9,1.2c-0.3,0.2-0.6,0.3-1,0.3c-0.9,0-1.9,0-2.8,0   c-0.1,0-0.3,0-0.4,0c0,0,0-0.1,0-0.1c2.4-1.5,4.8-2.9,7.2-4.4c-0.5-0.5-1-0.9-1.5-1.3c-0.7-0.6-1.4-1.2-2.1-1.8   c-0.2-0.2-0.2-0.3,0-0.4c1.2-0.7,2.4-1.5,3.6-2.2c0.6-0.3,1.1-0.7,1.7-1c0.1,0,0.1-0.1,0.2-0.1C13.5,3,11.9,1.6,10.2,0.1   C10.2,0.1,10.2,0.1,10.2,0.1z"/>
	<path class="st0" d="M32,0c1,0,2,0,3,0c0.4,0,0.4,0,0.3,0.4c-0.1,0.6-0.3,1.3-0.4,1.9c0,0.2-0.2,0.3-0.4,0.3c-0.5,0-1,0-1.5,0   c-0.3,0-0.4,0.1-0.4,0.4c-0.4,1.8-0.7,3.5-1.1,5.3c-0.3,1.3-0.5,2.5-0.8,3.7c-0.3,1.2-0.5,2.4-0.8,3.5C29.9,16,29.9,16,29.3,16   c-0.5,0-1.1,0-1.6,0c-0.2,0-0.4,0-0.3-0.3c0.3-1.5,0.6-3,1-4.4c0.2-1.2,0.5-2.4,0.7-3.6c0.3-1.2,0.5-2.4,0.8-3.6   c0.1-0.4,0.2-0.8,0.3-1.2c0-0.2-0.1-0.2-0.2-0.2c-0.5,0-1,0-1.5,0c-0.4,0-0.4,0-0.3-0.4c0.1-0.6,0.3-1.2,0.4-1.8   C28.5,0.1,28.7,0,29,0C30,0,31,0,32,0z"/>
	<path class="st0" d="M61.8,2.5c-0.6,0-1.2,0-1.8,0c-0.4,0-0.4,0-0.3-0.4c0.1-0.6,0.3-1.3,0.4-1.9c0-0.1,0.2-0.2,0.3-0.3   c0.1,0,0.2,0,0.3,0c2,0,3.9,0,5.9,0c0.5,0,0.5,0,0.4,0.4c-0.1,0.6-0.2,1.3-0.4,1.9c0,0.1-0.2,0.2-0.3,0.2c-0.5,0-1,0-1.6,0   c-0.3,0-0.4,0.1-0.4,0.3c-0.3,1.4-0.6,2.7-0.9,4.1c-0.2,0.8-0.3,1.5-0.5,2.3c-0.3,1.2-0.5,2.4-0.8,3.7c-0.2,0.9-0.4,1.9-0.6,2.8   c0,0.2-0.2,0.3-0.4,0.3c-0.6,0-1.2,0-1.8,0C59,16,59,16,59.1,15.6c0.2-0.7,0.3-1.5,0.5-2.2c0.3-1.2,0.5-2.4,0.8-3.6   c0.4-1.6,0.7-3.3,1.1-4.9C61.5,4.1,61.7,3.3,61.8,2.5z"/>
	<path class="st0" d="M45.1,13.5c0.1,0,0.2,0,0.4,0c0.9,0,1.8,0,2.6,0c0.4,0,0.4,0,0.3,0.4c-0.1,0.6-0.3,1.2-0.4,1.8   c0,0.2-0.2,0.3-0.4,0.3c-1.8,0-3.5,0-5.3,0c-0.3,0-0.3-0.1-0.3-0.4c0.3-1.5,0.6-2.9,0.9-4.4c0.2-0.8,0.3-1.5,0.5-2.3   c0.3-1.2,0.5-2.4,0.8-3.7C44.5,4.2,44.8,3,45,1.7c0.1-0.5,0.2-0.9,0.3-1.4C45.4,0.1,45.5,0,45.8,0c0.6,0,1.1,0,1.7,0   c0.4,0,0.4,0.1,0.3,0.4c-0.2,0.9-0.4,1.9-0.6,2.8c-0.4,1.7-0.7,3.5-1.1,5.2c-0.3,1.6-0.7,3.2-1,4.8C45.1,13.3,45.1,13.4,45.1,13.5z   "/>
	<path class="st0" d="M69.8,0c0.3,0,0.6,0,0.9,0C70.9,0,71,0.1,71,0.3c-0.2,0.8-0.3,1.6-0.5,2.4C70.2,4,70,5.2,69.7,6.4   c-0.3,1.2-0.5,2.5-0.8,3.7c-0.3,1.2-0.5,2.4-0.7,3.6c-0.1,0.7-0.3,1.4-0.5,2.1c0,0.2-0.1,0.3-0.3,0.3c-0.7,0-1.3,0-2,0   c-0.2,0-0.3-0.1-0.2-0.3c0.1-0.5,0.2-1.1,0.3-1.6c0.2-0.8,0.4-1.7,0.5-2.5c0.3-1.2,0.5-2.4,0.8-3.6c0.1-0.6,0.3-1.3,0.4-1.9   c0.3-1.3,0.6-2.7,0.9-4c0.1-0.6,0.2-1.1,0.3-1.7c0-0.3,0.2-0.4,0.5-0.4C69.2,0,69.5,0,69.8,0C69.8,0,69.8,0,69.8,0z"/>
</g>
</svg>