<svg xmlns="http://www.w3.org/2000/svg" xmlns:xlink="http://www.w3.org/1999/xlink" version="1.1" id="Layer_1" x="0px" y="0px" viewBox="0 0 28.6 31.2" style="enable-background:new 0 0 28.6 31.2;" xml:space="preserve">
<style type="text/css">
	.st0{fill:#666766;}
</style>
<path class="st0" d="M28.6,10.9c0-0.5-0.2-0.9-0.6-1.2L15.2,0.3c-0.5-0.4-1.2-0.4-1.6,0l-13,9.5C0.2,10.1,0,10.5,0,11v18.8  c0,0.7,0.6,1.3,1.3,1.3h25.9c0.7,0,1.3-0.6,1.3-1.3V10.9z M23,26.4h-4.2c-0.4,0-0.7-0.3-0.7-0.7v-5.3c0-0.4-0.3-0.7-0.7-0.7h-5.9  c-0.4,0-0.7,0.3-0.7,0.7v5.3c0,0.4-0.3,0.7-0.7,0.7H5.6c-0.4,0-0.7-0.3-0.7-0.7V13.3c0-0.4,0.2-0.7,0.5-1L14,6  c0.2-0.2,0.6-0.2,0.8,0l8.5,6.2c0.3,0.2,0.5,0.6,0.5,1v12.5C23.8,26,23.4,26.4,23,26.4z"/>
</svg>