<svg xmlns="http://www.w3.org/2000/svg" viewBox="0 0 57.09 25.73"><defs><style>.cls-1,.cls-2{fill-rule:evenodd;}.cls-2{fill:#f89938;}</style></defs><title>Logo-White-Black-Typo</title><g id="Layer_2" data-name="Layer 2"><g id="Layer_1-2" data-name="Layer 1"><path class="cls-1" d="M4.6,8.87a2.37,2.37,0,0,0,2.22,3h3c3,0,3.33-1.48,3.69-3l.37-1.48.37-1.48.37-1.47H9.22A2.39,2.39,0,0,0,10.9,7.32v.07l-.37,1.48h-3L8.86,3.7A1.09,1.09,0,0,1,9.78,3H12C15,3,15.32,1.48,15.69,0H9.78a4.39,4.39,0,0,0-3.7,3L4.6,8.87Zm41.4,0a2.37,2.37,0,0,0,2.22,3l.92-3.7a1.1,1.1,0,0,1,.92-.74h2.22c3,0,3.33-1.48,3.7-2.95H50.06l.19-.74A1.09,1.09,0,0,1,51.17,3h2.22c3,0,3.33-1.48,3.7-3H51.17a4.39,4.39,0,0,0-3.69,3L46,8.87Zm-20.7,0a2.37,2.37,0,0,0,2.22,3h3c2.95,0,3.32-1.48,3.69-3L35.68,3h0a2.37,2.37,0,0,0-2.22-3H30.48a4.39,4.39,0,0,0-3.7,3L25.3,8.87Zm3.7,0a.6.6,0,0,1-.56-.74L29.55,3.7A1.1,1.1,0,0,1,30.48,3H32a.59.59,0,0,1,.57.68L31.22,8.87l.18-.74a1.09,1.09,0,0,1-.92.74Zm6.65,0a2.37,2.37,0,0,0,2.22,3l.92-3.7a1.1,1.1,0,0,1,.93-.74h2.21c3,0,3.33-1.48,3.7-2.95H39.72l.18-.74A1.1,1.1,0,0,1,40.83,3H43c3,0,3.33-1.48,3.7-3H40.83a4.39,4.39,0,0,0-3.7,3L35.65,8.87ZM15,8.87a2.37,2.37,0,0,0,2.22,3h3c2.95,0,3.32-1.48,3.69-3H17.91l.18-.74A1.11,1.11,0,0,1,19,7.39h2.22c3,0,3.32-1.48,3.69-2.95H19l.18-.74A1.11,1.11,0,0,1,20.13,3h2.22C25.3,3,25.67,1.48,26,0H20.13a4.39,4.39,0,0,0-3.7,3L15,8.87Z"/><path class="cls-1" d="M47.44,25.73H45.78a2.84,2.84,0,0,1-2.5-1.48L42,22l-1.86,2.28a4.88,4.88,0,0,1-3,1.48H35.24l5.25-6.45-3-5.38h1.67a2.81,2.81,0,0,1,2.49,1.48l.83,1.48,1.2-1.48A4,4,0,0,1,46.7,13.9h1.85L44,19.55l3.48,6.18ZM31.18,18.34h3l.22-.91a.58.58,0,0,0-.57-.57h-1.5a1.11,1.11,0,0,0-.93.74l-.18.74Zm4.06-4.44a2.37,2.37,0,0,1,2.22,3L36,22.77a4.38,4.38,0,0,1-3.69,3L33.4,21.3h-3l-.37,1.47a4.39,4.39,0,0,1-3.7,3l2.22-8.87a4.39,4.39,0,0,1,3.7-3ZM17.66,19.25l1.7,4.53,4.32-5-1.74,7c3,0,3.33-1.48,3.72-3l1.82-7.39c.28-1.11,0-1.48-1.11-1.48h-1a1.6,1.6,0,0,0-1.47.74L20.67,18.4l-1.41-3.76a1,1,0,0,0-1.11-.74H17.5c-.73,0-1.47,0-1.84,1.48L13.07,25.73c3,0,3.33-1.48,3.72-3l.87-3.52Z"/><path class="cls-2" d="M0,25.73H2.7l5.67-3.5L5.49,19.72,9.82,17,6.18,13.91H3.83l3.54,2.94L3,19.61,5.92,22,0,25.73Zm4.6,0H7.37l5.11-3.15-2.89-2.5L14,17.4l-4-3.49H7.64L11.5,17.2,7.14,19.89,10,22.38,4.6,25.73Z"/></g></g></svg>