<svg xmlns="http://www.w3.org/2000/svg" xmlns:xlink="http://www.w3.org/1999/xlink" version="1.1" id="Layer_1" x="0px" y="0px" viewBox="0 0 942.5 976.1" style="enable-background:new 0 0 942.5 976.1;" xml:space="preserve">
<style type="text/css">
	.st0{fill:#666766;}
</style>
<path class="st0" d="M944.3,876.4L707,639.2c52.4-67,83.6-151.2,83.6-242.8C790.6,178.5,614,1.9,396.1,1.9S1.7,178.5,1.7,396.3  s176.6,394.5,394.5,394.5c75,0,145.1-20.9,204.8-57.3l242.9,242.9L944.3,876.4z M396.1,649.9c-140,0-253.5-113.5-253.5-253.5  c0-140,113.5-253.5,253.5-253.5c140,0,253.5,113.5,253.5,253.5C649.7,536.4,536.2,649.9,396.1,649.9z"/>
</svg>