<svg xmlns="http://www.w3.org/2000/svg" xmlns:xlink="http://www.w3.org/1999/xlink" version="1.1" id="Layer_1" x="0px" y="0px" viewBox="0 0 57.4 14" style="enable-background:new 0 0 57.4 14;" xml:space="preserve">
<style type="text/css">
	.st0{fill:#F4200F;}
</style>
<g>
	<path class="st0" d="M32.1,5c0,1.6,0,3.2,0,4.8c-0.1,0-2.7,0-2.9,0c0-0.1,0-9.6,0-9.8c0,0,0.1,0,0.1,0c0.8,0,1.6,0,2.4,0   c0.1,0,0.2,0,0.2,0.1c1.1,1.5,2.3,2.9,3.4,4.4c0,0,0.1,0.1,0.1,0.1c0-0.1,0-0.1,0-0.1c0-0.7,0-1.4,0-2.1c0-0.7,0-1.5,0-2.2   c0-0.1,0-0.1,0-0.2c1,0,1.9,0,2.9,0c0,3.3,0,6.5,0,9.8c-0.1,0-0.1,0-0.1,0c-0.7,0-1.5,0-2.2,0c-0.1,0-0.2,0-0.2-0.1   c-1.2-1.5-2.4-3.1-3.6-4.6C32.2,5.1,32.2,5.1,32.1,5C32.1,5,32.1,5,32.1,5z"/>
	<path class="st0" d="M6.9,4.8c0,0,0.1,0,0.1,0c0.3,0.1,0.7,0.3,1,0.5c0.4,0.4,0.7,0.8,0.8,1.4c0.1,0.4,0,0.8-0.1,1.2   C8.5,8.5,8.1,9,7.6,9.3C7.1,9.5,6.7,9.7,6.2,9.8C5.8,9.8,5.4,9.9,5,9.9c-1.6,0-3.2,0-4.8,0c-0.1,0-0.1,0-0.2,0c0-0.1,0-9.6,0-9.8   c0,0,0.1,0,0.1,0c1.6,0,3.2,0,4.8,0c0.6,0,1.1,0.1,1.6,0.2c0.5,0.2,0.9,0.4,1.2,0.8c0.3,0.4,0.5,0.8,0.5,1.3c0,0.3,0,0.6-0.1,0.9   C8.1,3.7,7.8,4.1,7.5,4.4C7.3,4.5,7.1,4.6,7,4.7C6.9,4.7,6.9,4.7,6.9,4.8C6.9,4.7,6.9,4.7,6.9,4.8z M2.7,7.7   C2.7,7.7,2.7,7.7,2.7,7.7c0.8,0,1.5,0,2.2,0c0.2,0,0.5,0,0.7-0.1c0.3-0.2,0.5-0.4,0.5-0.8c0-0.4-0.2-0.6-0.5-0.7   C5.5,6,5.4,6,5.4,5.9c-0.2,0-0.4-0.1-0.6-0.1c-0.6,0-1.3,0-1.9,0c0,0-0.1,0-0.1,0C2.7,6.5,2.7,7.1,2.7,7.7z M2.7,4   C2.7,4,2.7,4,2.7,4c0.7,0,1.3,0,2,0c0.2,0,0.4,0,0.5-0.1c0.4-0.2,0.6-0.5,0.5-1C5.6,2.6,5.4,2.5,5.2,2.4C4.9,2.3,4.7,2.2,4.5,2.2   c-0.6,0-1.2,0-1.7,0c0,0-0.1,0-0.1,0C2.7,2.8,2.7,3.4,2.7,4z"/>
	<path class="st0" d="M20.7,9.9c-1,0-2,0-3.1,0C19,6.6,20.4,3.3,21.8,0c0.9,0,1.8,0,2.7,0c1.4,3.3,2.8,6.6,4.2,9.9   c-1.1,0-2.1,0-3.2,0c-0.2-0.6-0.4-1.1-0.7-1.7c-0.1,0-0.1,0-0.1,0c-1.1,0-2.1,0-3.2,0c-0.1,0-0.1,0-0.2,0.1   c-0.2,0.5-0.4,0.9-0.6,1.4C20.7,9.8,20.7,9.8,20.7,9.9z M23.1,3.7c-0.1,0.1-0.8,2-0.8,2.1c0.2,0,1.5,0,1.6,0   C23.7,5.1,23.4,4.4,23.1,3.7z"/>
	<path class="st0" d="M53.2,0c1.4,3.3,2.8,6.5,4.2,9.8c-0.1,0-3,0-3.2,0c-0.2-0.6-0.4-1.1-0.7-1.7c-0.1,0-0.1,0-0.1,0   c-1.1,0-2.1,0-3.2,0c-0.1,0-0.1,0-0.2,0.1c-0.2,0.5-0.4,0.9-0.6,1.4c0,0,0,0.1-0.1,0.1c-1,0-2,0-3.1,0c0-0.1,0.1-0.1,0.1-0.2   c0.7-1.7,1.5-3.5,2.2-5.2c0.6-1.4,1.2-2.9,1.8-4.3c0,0,0,0,0-0.1C50.5,0,50.5,0,50.6,0C51.4,0,52.3,0,53.2,0C53.2,0,53.2,0,53.2,0z    M51.8,3.7C51.8,3.7,51.8,3.7,51.8,3.7c-0.3,0.7-0.6,1.4-0.8,2c0.2,0,1.5,0,1.6,0C52.4,5.1,52.1,4.4,51.8,3.7z"/>
	<path class="st0" d="M12.5,7.2c1.5,0,3.1,0,4.6,0c0,0.9,0,1.7,0,2.6c0,0-0.1,0-0.1,0c0,0-0.1,0-0.1,0c-2.4,0-4.7,0-7.1,0   c-0.1,0-0.1,0-0.2,0c0-0.1,0-9.7,0-9.8c1,0,1.9,0,2.9,0c0,0,0,0.1,0,0.1c0,0,0,0.1,0,0.1c0,2.3,0,4.5,0,6.8   C12.5,7.1,12.5,7.2,12.5,7.2z"/>
	<path class="st0" d="M39,8.2c0.6-0.6,1.3-1.2,1.9-1.8c0,0,0.1,0.1,0.1,0.1c0.2,0.2,0.3,0.4,0.5,0.5c0.3,0.2,0.5,0.3,0.9,0.3   c0.4,0,0.7-0.2,0.8-0.6c0.1-0.2,0.1-0.4,0.1-0.6c0-1.2,0-2.5,0-3.7c0-0.7,0-1.5,0-2.2c0-0.1,0-0.1,0-0.2c0.1,0,2.8,0,2.9,0   c0,0,0,0.1,0,0.1c0,2,0,4.1,0,6.1c0,0.5-0.1,1.1-0.3,1.6c-0.4,1-1.1,1.6-2.1,1.9c-0.5,0.2-1,0.2-1.5,0.2c-0.5,0-1-0.1-1.4-0.3   C40.1,9.5,39.5,9,39,8.2C39,8.3,39,8.3,39,8.2z"/>
	<path class="st0" d="M56.8,11c0.2,0,0.3,0,0.5,0c0,0.1,0,2.5,0,2.9c-0.1,0-0.3,0-0.5,0c0-0.1,0-0.3,0-0.4c0-0.1,0-0.3,0-0.4   c0-0.1,0-0.3,0-0.4c0-0.1,0-0.3,0-0.4c0-0.1,0-0.3,0-0.4c-0.1,0-0.1,0.1-0.1,0.1c-0.2,0.4-0.5,0.7-0.7,1.1c0,0-0.1,0.1-0.1,0.1   c-0.3-0.5-0.6-0.9-0.9-1.3c0,0.1,0,0.2,0,0.4c0,0.1,0,0.2,0,0.3c0,0.1,0,0.2,0,0.3c0,0.1,0,0.2,0,0.3c0,0.1,0,0.2,0,0.3   c0,0.1,0,0.2,0,0.3c-0.2,0-0.3,0-0.5,0c0-0.1,0-2.7,0-2.9c0.2,0,0.3,0,0.5,0c0,0,0.1,0.1,0.1,0.1c0.2,0.4,0.5,0.8,0.7,1.1   c0,0,0.1,0.1,0.1,0.1c0.1-0.1,0.2-0.2,0.2-0.3c0.1-0.1,0.1-0.2,0.2-0.3c0.1-0.1,0.1-0.2,0.2-0.3C56.7,11.2,56.8,11.1,56.8,11z"/>
	<path class="st0" d="M52.1,14c-0.9,0-1.5-0.6-1.5-1.5c0-0.9,0.7-1.5,1.5-1.5c0.9,0,1.5,0.6,1.5,1.5C53.6,13.3,53,14,52.1,14z    M53.1,12.5c0-0.1,0-0.2,0-0.3c-0.2-0.8-1.1-1-1.6-0.5c-0.3,0.3-0.4,0.6-0.3,1c0.1,0.6,0.7,1,1.2,0.8C52.8,13.4,53.1,13,53.1,12.5z   "/>
	<path class="st0" d="M49.7,13.2c0.1,0.1,0.2,0.2,0.3,0.3c-0.1,0.1-0.2,0.2-0.3,0.2c-0.6,0.4-1.6,0.4-2.2-0.4   c-0.5-0.8-0.2-2,0.8-2.3c0.5-0.2,1-0.1,1.5,0.3c0,0,0.1,0.1,0.1,0.1c-0.1,0.1-0.2,0.2-0.3,0.4c-0.1,0-0.1-0.1-0.2-0.1   c-0.3-0.2-0.6-0.3-0.9-0.2c-0.4,0.1-0.7,0.4-0.7,0.8c0,0.2,0,0.4,0.1,0.6c0.2,0.6,0.9,0.8,1.4,0.5C49.5,13.3,49.6,13.2,49.7,13.2z"/>
	<path class="st0" d="M46.7,13.9c-0.2,0-0.3,0-0.5,0c0-0.2,0-0.4,0-0.5c0.2,0,0.4,0,0.5,0C46.7,13.5,46.7,13.7,46.7,13.9z"/>
</g>
</svg>