<svg xmlns="http://www.w3.org/2000/svg" xmlns:xlink="http://www.w3.org/1999/xlink" version="1.1" id="Layer_1" x="0px" y="0px" viewBox="0 0 53.9 19.1" style="enable-background:new 0 0 53.9 19.1;" xml:space="preserve">
<style type="text/css">
	.st0{fill:#288ACA;}
	.st1{fill:#2B8CCB;}
	.st2{fill:#E84627;}
	.st3{fill:#278ACA;}
	.st4{fill:#2A8BCB;}
	.st5{fill:#F29122;}
	.st6{fill:#94C040;}
	.st7{fill:#F2901E;}
	.st8{fill:#E5127D;}
	.st9{fill:#2D8CCB;}
	.st10{fill:#28A651;}
	.st11{fill:#F8FAFC;}
	.st12{fill:#F5E7E9;}
	.st13{fill:#F6F6F6;}
</style>
<g>
	<path class="st0" d="M6.3,19.1c-1.8,0-3.6,0-5.5,0c-0.8,0-0.9-0.1-0.7-0.9c0.7-3,0.7-6,0.4-9c0-0.5-0.1-1-0.2-1.5   C0.3,7.3,0.4,7.2,0.7,7.1c3.6-0.2,7.1-0.4,10.7-0.6c0.9-0.1,0.9,0,0.8,0.9c-0.3,2.5-0.5,4.9-0.2,7.4c0.1,1.3,0.3,2.5,0.5,3.7   c0.1,0.4-0.1,0.6-0.5,0.6C10,19.1,8.1,19.1,6.3,19.1z M6.1,14c1.7,0,3.1-1.5,3.1-3.2c0-0.2-0.1-0.4-0.3-0.4c-0.2,0-0.3,0.1-0.4,0.3   c0,0.2,0,0.3-0.1,0.5c-0.2,1-1.1,1.9-2,2c-1.1,0.1-2.1-0.5-2.5-1.5c-0.1-0.3-0.2-0.6-0.2-0.9c0-0.2-0.1-0.4-0.4-0.4   c-0.3,0-0.3,0.2-0.3,0.4C3.1,12.5,4.1,13.9,6.1,14z M9.3,9.2c0-0.3-0.2-0.5-0.6-0.5C8.5,8.7,8.3,9,8.3,9.3c0,0.3,0.3,0.5,0.6,0.5   C9.1,9.8,9.3,9.5,9.3,9.2z M4,9.3C4,9,3.8,8.7,3.5,8.7c-0.3,0-0.5,0.2-0.5,0.5c0,0.3,0.2,0.5,0.5,0.5C3.7,9.8,4,9.5,4,9.3z"/>
	<path class="st1" d="M30.6,10.6c0,1,0,2,0,2.9c0,0.4,0,0.7,0.2,1.1c0.3,0.9,1.1,1.5,2.1,1.6c1.1,0,1.8-0.5,2.2-1.5   c0.6-1.5-0.2-3-1.7-3.3c-0.6-0.1-1.1,0-1.7,0.3c-0.1,0.1-0.2,0.1-0.3,0.2c-0.2,0.1-0.3,0.1-0.3-0.2c0-0.9,0.5-1.4,1.4-1.5   c1.7-0.1,3.1,0.6,3.8,2c0.9,2.1-0.3,4.7-2.4,5.2c-2.4,0.6-4.5-1.1-4.5-3.5c0-1.9,0-3.9,0-5.8c0-0.4,0.7-1,1.1-1   c0.2,0,0.2,0.2,0.2,0.4C30.6,8.4,30.6,9.5,30.6,10.6z"/>
	<path class="st1" d="M13.6,11c0-1,0-1.9,0-2.9c0-0.5,0.6-1,1.1-1c0.1,0,0.2,0.1,0.2,0.2c0,0.1,0,0.2,0,0.3c0,2,0,4,0,6.1   c0,0.5,0.1,1,0.4,1.5c0.7,1.2,2.3,1.5,3.4,0.6c1.3-1.1,1-3.4-0.5-4.1c-0.8-0.3-1.5-0.3-2.3,0.1c-0.2,0.1-0.3,0.3-0.5,0.2   c-0.2-0.1-0.1-0.4,0-0.6c0.2-0.8,0.4-1,1.1-1.1c1.3-0.2,2.4,0.1,3.3,1.1c1,1.1,1.2,2.9,0.4,4.4c-0.7,1.4-2.2,2-3.8,1.7   c-1.5-0.3-2.6-1.5-2.8-3.1c0-0.1,0-0.2,0-0.3C13.6,13,13.6,12,13.6,11C13.6,11,13.6,11,13.6,11z"/>
	<path class="st2" d="M5,6.6C4.4,6.7,3.8,6.7,3.3,6.7C2.5,6.8,1.6,6.8,0.8,6.8c-0.2,0-0.2,0-0.3-0.2C0.5,6.2,0.4,5.8,0.3,5.3   c-0.1-0.3,0-0.4,0.3-0.5C1,4.8,1.4,4.7,1.8,4.5c-0.1,0-0.2-0.1-0.3-0.1C1.1,4.3,1,4.1,1.1,3.8c0.1-0.3,0.3-0.5,0.6-0.5   c0.5,0,0.9,0.2,1.2,0.6C2.9,3.9,3,4.1,3.1,4.1C3.3,4,3.6,4,3.6,3.7c0.1-0.4,0.3-0.9,0.8-1c0.2,0,0.3,0,0.5,0C5.4,2.9,5.4,3.2,5,3.6   C5,3.7,4.9,3.8,4.9,3.9c-0.4,0-0.6,0.2-0.5,0.5C4.6,5.2,4.8,5.9,5,6.6z M4.1,3.8c0.2,0,0.4-0.2,0.6-0.3C4.8,3.4,4.9,3.2,4.8,3   C4.6,2.9,4.5,3,4.4,3.1C4.2,3.3,4.1,3.5,4.1,3.8C4.1,3.8,4.1,3.8,4.1,3.8C4.1,3.8,4.1,3.8,4.1,3.8C4.1,3.8,4.1,3.8,4.1,3.8z    M2.4,4.2C2.3,3.9,2.1,3.8,1.9,3.7C1.7,3.6,1.5,3.6,1.5,3.8c0,0.2,0.1,0.3,0.3,0.3C2,4.1,2.2,4.1,2.4,4.2z"/>
	<path class="st0" d="M37.8,12.4c0-1.5,0-3,0-4.5c0-0.4,0.8-1,1.1-0.9c0.2,0,0.2,0.2,0.2,0.3c0,0.3,0,0.6,0,0.8c0,2.7,0,5.3,0,8   c0,0.7-0.5,1.1-1.2,1.1c-0.2,0-0.1-0.2-0.1-0.3C37.8,15.5,37.8,13.9,37.8,12.4C37.8,12.4,37.8,12.4,37.8,12.4z"/>
	<path class="st3" d="M22.2,12.5c0-1.5,0-3,0-4.5c0-0.4,0.7-1,1.1-0.9c0.1,0,0.2,0.1,0.2,0.2c0,0.1,0,0.2,0,0.3c0,2.8,0,5.7,0,8.5   c0,0.8-0.3,1.1-1.1,1.2c-0.2,0-0.2,0-0.2-0.2C22.2,15.5,22.2,14,22.2,12.5z"/>
	<path class="st4" d="M41.6,13.9c0-1,0-2,0-2.9c0-0.4,0.8-0.9,1.2-0.8c0.1,0,0.1,0.1,0.1,0.2c0,0.3,0,0.6,0,0.9c0,1.6,0,3.3,0,4.9   c0,0.6-0.5,1.1-1.1,1c-0.2,0-0.2-0.2-0.2-0.3C41.6,15.9,41.6,14.9,41.6,13.9C41.6,13.9,41.6,13.9,41.6,13.9z"/>
	<path class="st0" d="M25.9,14c0-0.9,0-1.9,0-2.8c0-0.5,0.1-0.6,0.5-0.7c0.7-0.2,0.8-0.2,0.8,0.5c0,1.8,0,3.6,0,5.4   c0,0.6-0.6,1-1.1,1c-0.2,0-0.2-0.2-0.2-0.3C25.9,16,25.9,15,25.9,14C25.9,14,25.9,14,25.9,14z"/>
	<path class="st5" d="M8.5,3.4c0-0.1-0.1-0.1-0.1-0.2C8.1,3,8.1,2.7,8.3,2.5C8.5,2.3,8.7,2.2,9,2.4c0.3,0.2,0.5,0.5,0.6,0.9   c0,0.1,0,0.3,0.2,0.3c0.2,0,0.4,0.2,0.5-0.1c0.1-0.2,0.3-0.3,0.5-0.4c0.3-0.1,0.6-0.1,0.9,0.1c0.1,0.1,0.2,0.3,0.2,0.5   c0,0.2-0.2,0.3-0.4,0.3c-0.1,0-0.3,0.1-0.4,0.1C11,4,10.8,4,10.7,4c-0.1,0-0.2,0-0.3,0.2C10.2,4.8,10,5.6,9.8,6.3   c-0.5,0-1,0.1-1.5,0.1c0.2-0.7,0.4-1.4,0.5-2.1C9.1,3.6,9.1,3.6,8.5,3.4z M9.2,3.2C9.2,3.2,9.2,3.3,9.2,3.2   C9.2,3.2,9.2,3.2,9.2,3.2c0-0.2-0.1-0.4-0.3-0.6C8.8,2.6,8.7,2.5,8.6,2.6C8.5,2.7,8.5,2.9,8.6,3C8.8,3.1,9,3.2,9.2,3.2z M10.6,3.7   c0.3,0,0.5,0,0.7-0.1c0.2,0,0.3-0.1,0.2-0.3c-0.1-0.2-0.2-0.2-0.4-0.1C10.9,3.3,10.8,3.5,10.6,3.7z"/>
	<path class="st1" d="M50,8.3c0-0.3,0-0.7,0-1C50,7.2,50,7.1,50.1,7c0.2,0,0.4-0.1,0.5,0.1c0.1,0.2,0.1,0.1,0.2,0   c0.5-0.3,0.9-0.3,1.2,0.1c0.1,0.1,0.2,0.1,0.3,0C52.6,7,52.9,6.9,53.2,7c0.3,0.1,0.5,0.2,0.6,0.5c0.1,0.6,0.1,1.3,0.1,1.9   c0,0.3-0.3,0.1-0.4,0.1c-0.1,0-0.2,0-0.2-0.2c0-0.4,0-0.8,0-1.2c0-0.3,0-0.5-0.4-0.6c-0.3,0-0.5,0.2-0.5,0.5c0,0.4,0,0.8,0,1.2   c0,0.3-0.1,0.3-0.3,0.3c-0.2,0-0.3,0-0.3-0.3c0-0.4,0-0.9,0-1.3c0-0.3-0.1-0.5-0.4-0.5c-0.3,0-0.4,0.2-0.5,0.5   c-0.1,0.4-0.1,0.9,0,1.3c0,0.3-0.1,0.3-0.3,0.3c-0.2,0-0.3,0-0.3-0.3C50.1,9,50,8.6,50,8.3z"/>
	<path class="st6" d="M4.9,3.9C4.9,3.8,5,3.7,5,3.6c0.4-0.4,0.4-0.6-0.1-0.9c0-0.2,0-0.4,0.1-0.6c0,0,0.1,0,0.1-0.1   c0.4-0.2,0.7-0.5,1.2-0.3c0,0,0.1,0,0.2,0c0.3-0.2,0.5-0.1,0.8,0c0.2,0.1,0.3,0.1,0.5,0.2c0.5,0.4,0.2,1,0.3,1.5   c-0.1,0-0.1,0-0.2,0C7.3,3.1,7.2,3.2,7.1,3.7C7,4.1,7,4.4,6.8,4.8c0-0.2-0.1-0.4-0.1-0.6C6.5,3.7,6.5,3.7,6,3.7   C5.6,3.7,5.3,3.9,4.9,3.9z"/>
	<path class="st7" d="M4.9,3.9c0.4,0,0.7-0.2,1.1-0.2c0.5,0,0.5,0,0.6,0.5c0,0.2,0.1,0.4,0.1,0.6c-0.1,0.5,0,0.9,0,1.4   c0,0.3,0.1,0.3,0.3,0.3c-0.3,0.1-0.7,0.1-1,0.1c-0.4,0-0.8,0-1.2,0C4.8,5.9,4.6,5.2,4.4,4.4C4.4,4.1,4.6,3.9,4.9,3.9z"/>
	<path class="st8" d="M7.2,6.5c-0.2,0-0.3-0.1-0.3-0.3c0-0.5-0.2-0.9,0-1.4C7,4.4,7,4.1,7.1,3.7c0.2-0.5,0.3-0.6,0.8-0.5   c0.1,0,0.1,0,0.2,0c0.1,0,0.3,0.1,0.4,0.1c0.7,0.2,0.7,0.2,0.5,0.8C8.8,4.9,8.6,5.7,8.4,6.4C8,6.4,7.6,6.4,7.2,6.5z"/>
	<path class="st8" d="M9.8,6.3c0.2-0.7,0.4-1.4,0.6-2.1c0-0.2,0.1-0.2,0.3-0.2C10.8,4,11,4,11.1,4.1c0.3,0.1,0.6,0.2,0.9,0.2   c0.3,0.1,0.4,0.2,0.3,0.5C12.2,5.2,12.1,5.6,12,6c0,0.1-0.1,0.1-0.2,0.1C11.1,6.2,10.5,6.2,9.8,6.3z"/>
	<path class="st9" d="M49.5,8.3c0,0.8-0.6,1.3-1.3,1.3c-0.7,0-1.3-0.6-1.3-1.3c0-0.7,0.6-1.3,1.3-1.3C49,7,49.5,7.6,49.5,8.3z    M48.2,9c0.4,0,0.7-0.3,0.7-0.7c0-0.4-0.3-0.7-0.7-0.7c-0.4,0-0.7,0.3-0.7,0.7C47.5,8.8,47.8,9,48.2,9z"/>
	<path class="st9" d="M45.3,7C45.6,7,45.8,7,46,7.1c0.2,0.1,0.3,0.3,0.2,0.5c-0.1,0.2-0.2,0.2-0.4,0.1c-0.3-0.2-0.8-0.1-1,0.1   c-0.2,0.3-0.2,0.7,0,1c0.2,0.3,0.7,0.3,1,0.1c0.2-0.1,0.3-0.1,0.5,0c0.2,0.2,0.1,0.3-0.1,0.5c-0.5,0.3-1.3,0.3-1.7,0   C44,9,43.8,8.4,44,7.9C44.2,7.3,44.7,7,45.3,7z"/>
	<path class="st10" d="M7.8,1.8c-0.2,0-0.3-0.1-0.5-0.2C7,1.5,6.8,1.5,6.5,1.6c0,0-0.1,0-0.2,0C5.9,1.5,5.5,1.8,5.2,2   c0,0-0.1,0-0.1,0.1C4.9,1.6,4.9,1.2,4.9,0.8c0-0.1,0.1-0.1,0.2-0.1c0.2,0,0.4,0.1,0.6,0.1C6,1,6.5,0.7,6.9,0.8c0,0,0.1-0.1,0.1-0.1   c0,0,0.1,0,0.1-0.1l0,0c0.2,0,0.3-0.2,0.5-0.3c0.1-0.1,0.2-0.1,0.2,0.1C7.7,0.9,7.7,1.4,7.8,1.8z"/>
	<path class="st1" d="M42.2,7.9c0.5,0,0.8,0.3,0.8,0.8c0,0.4-0.3,0.8-0.7,0.8c-0.5,0-0.8-0.3-0.8-0.8C41.4,8.2,41.8,7.9,42.2,7.9z"/>
	<path class="st1" d="M27.3,8.7c0,0.5-0.3,0.8-0.8,0.8c-0.4,0-0.8-0.4-0.8-0.8c0-0.4,0.4-0.8,0.8-0.8C27,7.9,27.3,8.3,27.3,8.7z"/>
	<path class="st6" d="M7,0.7c0,0-0.1,0.1-0.1,0.1C6.5,0.7,6,1,5.6,0.8c0-0.2-0.3-0.3-0.3-0.5c0.3,0.1,0.5,0,0.7-0.1   C6.1,0,6.2,0,6.3,0.1C6.6,0.2,6.8,0.2,7,0C7.1,0.2,7,0.5,7,0.7C7,0.7,7,0.7,7,0.7C7,0.6,7,0.7,7,0.7z"/>
	<path class="st11" d="M6.1,14c-2-0.1-3-1.5-3-3.1c0-0.2,0.1-0.4,0.3-0.4c0.2,0,0.4,0.2,0.4,0.4c0,0.3,0.1,0.6,0.2,0.9   c0.4,1,1.3,1.6,2.5,1.5c1-0.1,1.9-1,2-2c0-0.2,0-0.3,0.1-0.5c0-0.2,0.1-0.4,0.4-0.3c0.2,0,0.3,0.2,0.3,0.4C9.2,12.5,7.7,14,6.1,14z   "/>
	<path class="st11" d="M9.3,9.2c0,0.3-0.2,0.5-0.5,0.5c-0.3,0-0.5-0.2-0.6-0.5c0-0.3,0.2-0.5,0.5-0.5C9.1,8.7,9.3,8.9,9.3,9.2z"/>
	<path class="st11" d="M4,9.3c0,0.3-0.2,0.5-0.5,0.5c-0.3,0-0.5-0.2-0.5-0.5c0-0.3,0.2-0.5,0.5-0.5C3.8,8.7,4,9,4,9.3z"/>
	<path class="st12" d="M2.4,4.2c-0.2,0-0.5,0-0.7,0C1.6,4.1,1.4,4,1.5,3.8c0-0.2,0.2-0.2,0.4-0.1C2.1,3.8,2.3,3.9,2.4,4.2z"/>
	<path class="st12" d="M4.1,3.8c0-0.2,0.1-0.4,0.3-0.6C4.5,3,4.6,2.9,4.8,3c0.2,0.2,0,0.3-0.1,0.4C4.5,3.6,4.3,3.7,4.1,3.8L4.1,3.8z   "/>
	<path class="st12" d="M4.1,3.8C4.1,3.8,4.1,3.8,4.1,3.8C4.1,3.8,4.1,3.8,4.1,3.8C4.1,3.8,4.1,3.8,4.1,3.8C4.1,3.8,4.1,3.8,4.1,3.8z   "/>
	<path class="st12" d="M10.6,3.7c0.2-0.2,0.4-0.3,0.5-0.4c0.1-0.1,0.3-0.1,0.4,0.1c0.1,0.2-0.1,0.3-0.2,0.3   C11.1,3.7,10.9,3.7,10.6,3.7z"/>
	<path class="st12" d="M9.2,3.2C9,3.2,8.8,3.1,8.6,3C8.5,2.9,8.5,2.7,8.6,2.6c0.1-0.1,0.3,0,0.4,0.1C9.1,2.8,9.2,3,9.2,3.2   C9.2,3.2,9.2,3.2,9.2,3.2z"/>
	<path class="st12" d="M9.2,3.2C9.2,3.2,9.2,3.2,9.2,3.2C9.2,3.3,9.2,3.2,9.2,3.2C9.2,3.2,9.2,3.2,9.2,3.2z"/>
	<path class="st13" d="M7,0.7C7,0.7,7,0.6,7,0.7C7,0.7,7,0.7,7,0.7z"/>
</g>
</svg>