<svg xmlns="http://www.w3.org/2000/svg" xmlns:xlink="http://www.w3.org/1999/xlink" version="1.1" id="Layer_1" x="0px" y="0px" viewBox="0 0 36.9 13.2" style="enable-background:new 0 0 36.9 13.2;" xml:space="preserve">
<style type="text/css">
	.st0{fill:#E80000;}
	.st1{fill:#FFFFFF;}
</style>
<g>
	<path class="st0" d="M16.2,0.1H18c5-0.1,8.2,1.6,8.2,6.5c0,4.2-2.3,6.7-8.2,6.5h-1.8V0.1L16.2,0.1z M31.9,6.3L31.9,6.3h0.9   c2.5-0.1,4.1,0.8,4.1,3.3c0,2.1-1.2,3.3-4.1,3.3h-0.9V6.3L31.9,6.3z M32.8,7.1L32.8,7.1V12h0.6c1.8,0.1,2.6-0.9,2.6-2.5   c0-1.8-1-2.5-2.6-2.4H32.8L32.8,7.1z M12.6,0.1L12.6,0.1h1.8v8.7c0,3.2-2.2,4.4-5.6,4.4c0-0.5,0-1.1,0-1.6c2.1-0.1,3.8-0.5,3.8-2.8   L12.6,0.1L12.6,0.1z M27.2,10.9L27.2,10.9c0.4,0,0.7,0.3,0.7,0.7s-0.3,0.7-0.7,0.7c-0.4,0-0.7-0.3-0.7-0.7S26.8,10.9,27.2,10.9   L27.2,10.9z M29,6.3L29,6.3h1.1v6.6H29V6.3L29,6.3z M18,1.7L18,1.7v9.8h1.2c3.7,0.1,5.3-1.8,5.3-4.9c0-3.6-2.1-5-5.3-4.9   C19.2,1.7,18,1.7,18,1.7z"/>
	<g>
		<path d="M8.3,3.5c-0.2-0.9-0.5-1.5-1-2C7.1,1.3,7.1,1.2,7,1c0-0.1,0-0.2-0.1-0.4C6.7,0.4,6.5-0.1,6.1,0l0,0l0,0    C5.9,0.2,5.9,0.3,5.9,0.4v0.1C4.8,0.4,4.4,0.3,3.1,0.4L2.9,0.1C2.7,0,2.7,0,2.5,0.1l0,0L2.4,0.5C2,0.7,1.7,0.8,1.6,1.1    c-0.1,0.2-0.1,0.6,0,0.7C1.6,1.9,1.8,2,2,1.9l0,0l0,0c0-0.1,0-0.2,0-0.2s0,0-0.1-0.1c0-0.1,0-0.1,0-0.2c0.1,0,0.3,0,0.5,0.2    c0.1,1.1,0,1.1-0.3,1.4C2.1,3,2,3.1,2,3.1C1.9,3.2,1.9,3.2,1.8,3.3c-0.1,0-0.1,0.1-0.2,0.2C0.5,4.4-0.1,6,0,7.4    c0.1,0.9,0.5,1.2,0.8,1.5C0.9,9,0.9,9,1,9.1C0.8,9.2,0.6,9.3,0.5,9.5c-0.3,0.6,0.1,1.6,0.3,1.9v0.1c0.1,0.2,0,0.5-0.1,0.5    c0,0,0,0-0.1,0l0,0c0,0,0.1-0.1,0-0.2c0-0.1-0.1-0.1-0.2-0.1l0,0c-0.1,0-0.2,0.1-0.3,0.2c0,0.1-0.1,0.3,0.1,0.6    c0.3,0.5,0.7,0.4,1.3,0.2c0.1,0.2,0.1,0.4,0.3,0.6l0,0v-0.1l0,0c0.1,0,0.1-0.1-0.1-0.4C1.3,12,1.3,11,2,10.4    c0.5-0.4,1-0.2,1.4-0.1c0.5,0.1,0.9,0.3,1.3-0.5h0.1C5.1,9.9,5.3,10,5.7,10s0.6,0,0.8-0.1C6.8,10,6.9,10,7,10    c0,0.3,0.1,0.5,0.2,0.8s0.1,0.6,0.2,0.8c0.1,0.7-0.1,0.9-0.3,1.2C7,12.9,7,13,6.9,13.1v0.1H7c0.2,0,0.2,0,0.4-0.4    c0.3-0.7,0.2-1.4,0-2.1C7.2,9.9,7.1,9.1,7.2,8.1h0.1c0.1,0,0.2,0,0.3-0.1c0.2-0.1,0.2-0.1,0.2-0.3l0,0l0,0c-0.1,0-0.1-0.1-0.2-0.1    s-0.1,0-0.1-0.3c-0.1-0.4,0-0.8,0.3-1c0-0.1,0.1-0.1,0.2-0.2C8.1,6.1,8.1,6,8.2,6C8.5,5.7,8.3,3.8,8.3,3.5z M1.5,12.1    c0,0.1,0,0.2,0,0.3c-0.3,0.2-0.5,0.2-0.7,0.1c-0.1-0.1-0.2-0.1-0.2-0.3c0.1,0,0.1,0.1,0.2,0.1s0.2,0,0.3-0.1    c0.3-0.3,0.2-0.7,0-1.2c-0.1-0.3-0.3-0.6-0.3-0.9c0-0.3,0.1-0.6,0.3-0.7c0.1-0.1,0.3-0.1,0.5,0S1.9,9.5,2,9.5    c0.1,0,0.3,0.1,0.4,0.5C1.3,10.6,1.4,11.5,1.5,12.1z M5.8,0.9c0,0.4-0.2,1.2-0.4,1.6c-1,0-1.3,0.1-1.8,0.4c0,0-0.1,0.1-0.2,0.1    c0-0.9-0.5-1.7-1.1-1.9c-0.1,0-0.1,0-0.2,0c-0.1,0-0.2,0-0.2,0.1C1.9,1.1,2,1,2.1,1C2.9,0.4,5,0.5,5.8,0.9z M4.8,9    c0,0.6-0.1,1-0.3,1.1c-0.2,0.1-0.4,0.1-0.8,0C3.4,10,3.1,9.9,2.8,9.9H2.7L2.5,9.6c0.5,0,0.8,0,1.3-0.2C4,9.3,4.2,9.2,4.4,9.1    C4.5,9.1,4.7,9,4.8,9z M6.7,9C6.5,9.1,6.3,9.1,6,9.1C5.6,9.1,5.2,9,5,8.9c0-0.1,0.2-0.2,0.4-0.3c0.2-0.1,0.4-0.3,0.5-0.5V8L5.8,8    C5.7,8,5.4,8.2,5.2,8.4C5,8.5,4.9,8.6,4.7,8.7C5,8.3,5.1,8.1,5.1,7.5c0-0.2,0-0.2,0.1-0.2c0,0,0.1-0.1,0.1-0.2L5.4,7H5.3H5.2    C5.1,7.1,5,7.1,4.8,7.1H4.7l0.1,0.1l0.1,0.1C5,7.4,5,7.4,4.9,7.8C4.7,8.6,4.1,9,3.7,9.2C2.9,9.5,1.8,9.3,1.2,8.9    c-0.7-0.5-1-1.1-1-2.2c0.1-1,0.4-1.5,0.6-1.9C0.9,4.7,1,4.6,1.1,4.4c0.4,0.1,0.6,0,0.8-0.1C2,4.2,2,3.9,1.9,3.5    c0.2-0.2,0.8-0.7,1.2-0.8v0.8h0.1c0.1,0,0.2-0.1,0.4-0.2C3.8,3.1,4,3,4.2,2.9c0.4-0.2,0.7-0.2,1.2-0.2c0,0,0,0,0,0.1s0,0.1,0,0.2    l0,0h0.1c0.1-0.1,0.1-0.1,0.2-0.3c0-0.1,0-0.2,0.1-0.3C5.9,1.8,6,1.2,6.1,0.8c0-0.2,0.1-0.4,0.1-0.5C6.5,0.3,6.8,1,7.1,2    c0.1,0.4,0.2,0.8,0.2,1.2c0,0.2,0,0.5,0,0.7c0,0.1,0,0.1,0,0.2c0,0.2,0,0.4,0.1,0.5l0,0l0,0c0.1-0.1,0.1-0.2,0.1-0.3    c0.2,0.6,0,1.6-0.1,2.2C7.1,7.3,6.9,7.9,6.9,8.9C6.8,9,6.8,9,6.7,9z M7.8,5.8C7.9,5.1,8,4.6,7.7,3.9C7.5,3.6,7.5,3.5,7.5,3.2    c0-0.1,0-0.2,0-0.4S7.4,2.4,7.4,2.2c0-0.1,0-0.2-0.1-0.3c0.2,0.2,0.3,0.4,0.4,0.7C8.1,3.5,8.2,4.9,8,5.7v0.1l0,0    C8,5.8,8,5.8,7.8,5.8C7.9,5.8,7.8,5.9,7.8,5.8C7.7,5.9,7.8,5.9,7.8,5.8z"/>
		<path d="M5.1,4.3c-0.6,0.1-0.8,0.6-0.7,1C4.5,5.7,4.7,6,5.2,6h0.1C5.7,6,5.9,5.8,6,5.5s0.1-0.7-0.1-1C5.7,4.3,5.5,4.3,5.1,4.3z"/>
		<path d="M6.5,1L6.5,1L6.5,1L6.5,1L6.5,1c0,0-0.1,0-0.1-0.1H6.3V1c0.1,0.4,0.2,0.7,0.2,0.9c0.1,0.4,0.2,0.5,0.2,1.7    c-0.1,0-0.1-0.1-0.2-0.1C6.4,3.3,6.2,3.1,5.9,3H5.8v0.1v0.1c0,0.1,0,0.1,0.1,0.1c0,0,0.1,0,0.1,0.1c0.3,0.2,0.3,0.2,0.4,0.3    c0,0,0.1,0.1,0.2,0.2l0,0c0,0,0.1,0,0.1,0.1h0.1l0,0C7.2,3.6,6.8,1.3,6.5,1L6.5,1z"/>
	</g>
	<path class="st0" d="M6.9,9.8C7,9.7,7,9.8,7,9.2c-0.3,0-0.6,0.2-1,0.1c-0.3,0-0.8-0.2-1-0.2v0.5C5.5,9.9,6.4,10.1,6.9,9.8z"/>
	<path class="st1" d="M5.8,5c0.1-0.5-0.4-0.6-0.5-0.3C5.2,5.1,5.5,5.3,5.8,5z"/>
</g>
</svg>