<svg xmlns="http://www.w3.org/2000/svg" xmlns:xlink="http://www.w3.org/1999/xlink" version="1.1" id="Layer_1" x="0px" y="0px" viewBox="0 0 65.2 15.2" style="enable-background:new 0 0 65.2 15.2;" xml:space="preserve">
<style type="text/css">
	.st0{fill:#2F1A7F;}
	.st1{fill:url(#SVGID_1_);}
	.st2{fill:url(#SVGID_2_);}
	.st3{fill:url(#SVGID_3_);}
</style>
<g>
	<g>
		<path class="st0" d="M23.8,3.2c0.5,0,1,0,1.6,0c0,0.1,0,0.2,0,0.3c0,2.3,0,4.7,0,7c0,0.3,0.1,0.3,0.3,0.3c0.7,0,1.4,0,2.1,0    c0.1,0,0.2,0,0.3,0c0,0.5,0,1,0,1.5c-0.1,0-0.2,0-0.3,0c-1.2,0-2.4,0-3.7,0c-0.1,0-0.2,0-0.3,0C23.8,9.3,23.8,6.3,23.8,3.2z"/>
		<path class="st0" d="M57.3,12.4c-0.4,0-0.9,0-1.3,0c0,0-0.1-0.1-0.1-0.2c0-0.2,0-0.4,0-0.6h-0.1c-1.3,1.6-4.3,1.2-5.1-1.4    c-0.5-1.6,0.1-3.4,1.5-4.2c1.2-0.7,2.6-0.5,3.6,0.5c0,0,0,0,0.1,0.1c0-1.3,0-2.5,0-3.8c0.5,0,1,0,1.5,0    C57.3,5.9,57.3,9.1,57.3,12.4z M54,11.2c1.2,0,2-0.9,2-2.1c0-1.2-0.9-2.2-2-2.2S52,7.8,52,9C52,10.2,52.8,11.2,54,11.2z"/>
		<path class="st0" d="M33.9,12.4c0-0.3,0-0.5,0-0.8c-0.3,0.2-0.6,0.5-1,0.6c-1.2,0.6-2.6,0.2-3.5-0.8c-1.3-1.5-1.2-3.8,0.3-5.1    c1.1-1,3-1.2,4.2,0.2c0-0.3,0-0.6,0-0.8c0.5,0,1,0,1.5,0c0,0.1,0,0.2,0,0.2c0,2.1,0,4.1,0,6.2c0,0.2,0,0.3-0.3,0.3    C34.8,12.4,34.4,12.4,33.9,12.4z M34.1,9c0-1.5-1.3-2.5-2.6-2.1c-0.9,0.3-1.4,1.2-1.4,2.3c0.1,1.3,1.3,2.2,2.5,1.9    C33.5,10.9,34.1,10,34.1,9z"/>
		<path class="st0" d="M63.7,6.5c0-0.3,0-0.5,0-0.8c0.5,0,1,0,1.5,0c0,2.2,0,4.5,0,6.7c-0.4,0-0.9,0-1.3,0c0,0-0.1-0.1-0.1-0.2    c0-0.2,0-0.4,0-0.6h-0.1c-1.1,1.3-3.4,1.2-4.6-0.4c-1.1-1.5-0.9-3.8,0.5-5C60.8,5.2,62.6,5.3,63.7,6.5C63.6,6.4,63.7,6.4,63.7,6.5    z M61.9,11.2c1.2,0,2-0.9,2-2.2c0-1.2-0.9-2.1-2-2.1c-1.2,0-2,0.9-2,2.2C59.8,10.3,60.7,11.2,61.9,11.2z"/>
		<path class="st0" d="M48,6.5c0-0.3,0-0.6,0-0.8c0.5,0,1,0,1.4,0c0,2.2,0,4.4,0,6.7c-0.5,0-0.9,0-1.4,0c0-0.3,0-0.5,0-0.8h-0.1    c-1.2,1.3-3.4,1.2-4.6-0.3c-1.2-1.6-0.9-4,0.7-5.2c1.2-0.9,2.9-0.8,3.9,0.3C47.9,6.4,48,6.4,48,6.5z M44.1,9    c0,1.8,1.6,2.6,2.9,1.9c0.7-0.4,1.1-1.2,1.1-2.2c-0.1-1.1-0.9-1.9-2-1.9C45,6.8,44.1,7.7,44.1,9z"/>
		<path class="st0" d="M36.6,7c0-0.5,0-0.9,0-1.3c1.8,0,3.6,0,5.4,0c0,0.4,0,0.8,0,1.1c0,0.1-0.1,0.2-0.2,0.3    c-1,1.2-2.1,2.5-3.1,3.7c0,0-0.1,0.1-0.2,0.2c1.2,0,2.4,0,3.5,0c0,0.5,0,0.9,0,1.3c-1.8,0-3.6,0-5.5,0c0-0.4,0-0.7,0-1.1    c0-0.1,0.1-0.2,0.1-0.2c1-1.2,2.1-2.5,3.1-3.7c0.1-0.1,0.1-0.2,0.2-0.3C38.9,7,37.8,7,36.6,7z"/>
	</g>
	<g>
		
			<linearGradient id="SVGID_1_" gradientUnits="userSpaceOnUse" x1="2.180481e-02" y1="7.8025" x2="18.8591" y2="7.8025" gradientTransform="matrix(1 0 0 -1 0 15.365)">
			<stop offset="0" style="stop-color:#FCA31B"/>
			<stop offset="1" style="stop-color:#FF2AF6"/>
		</linearGradient>
		<path class="st1" d="M15.1,0.1c-0.2-0.1-0.5-0.1-0.7,0l-3.7,2.2c-0.8,0.5-1.8,0.5-2.6,0L4.7,0.1C4.5,0,4.2,0,4,0.1L0.4,2.3    C0.3,2.4,0.2,2.6,0.2,2.7V9c0,0.3,0.1,0.5,0.4,0.7L9.2,15c0.2,0.2,0.6,0.2,0.8,0l8.7-5.2c0.2-0.1,0.4-0.4,0.4-0.7V2.7    c0-0.2-0.1-0.3-0.2-0.4L15.1,0.1z"/>
		
			<linearGradient id="SVGID_2_" gradientUnits="userSpaceOnUse" x1="9.0798" y1="3.7939" x2="17.4986" y2="8.9184" gradientTransform="matrix(1 0 0 -1 0 15.365)">
			<stop offset="0" style="stop-color:#FF004D"/>
			<stop offset="1" style="stop-color:#FF28AC"/>
		</linearGradient>
		<path class="st2" d="M18.6,9.7l-9.2,5.5V7.5l9.1-4.9c0.2-0.1,0.3,0,0.3,0.2v6.4C18.9,9.4,18.8,9.6,18.6,9.7z"/>
		
			<linearGradient id="SVGID_3_" gradientUnits="userSpaceOnUse" x1="-0.7521" y1="10.4696" x2="8.1758" y2="4.6819" gradientTransform="matrix(1 0 0 -1 0 15.365)">
			<stop offset="0" style="stop-color:#FB8917"/>
			<stop offset="1" style="stop-color:#F84720"/>
		</linearGradient>
		<path class="st3" d="M0.3,9.6l9.1,5.6V7.5L0.3,2.6C0.2,2.5,0,2.6,0,2.8v6.3C0,9.3,0.1,9.5,0.3,9.6z"/>
	</g>
</g>
</svg>