<svg xmlns="http://www.w3.org/2000/svg" xmlns:xlink="http://www.w3.org/1999/xlink" version="1.1" id="Layer_1" x="0px" y="0px" viewBox="0 0 55.7 17.7" style="enable-background:new 0 0 55.7 17.7;" xml:space="preserve">
<style type="text/css">
	.st0{fill:url(#SVGID_1_);}
	.st1{fill:url(#SVGID_2_);}
	.st2{fill:url(#SVGID_3_);}
	.st3{fill:url(#SVGID_4_);}
	.st4{fill:url(#SVGID_5_);}
	.st5{fill:url(#SVGID_6_);}
	.st6{fill:url(#SVGID_7_);}
</style>
<g>
	<linearGradient id="SVGID_1_" gradientUnits="userSpaceOnUse" x1="7.4767" y1="1.2954" x2="7.4767" y2="14.6741">
		<stop offset="0" style="stop-color:#EA420A"/>
		<stop offset="1" style="stop-color:#E96E00"/>
	</linearGradient>
	<path class="st0" d="M3.6,4C3.9,3.3,4,2.7,4.2,2.2C4.9,0.7,6.1-0.1,7.7,0c1.5,0.1,2.4,1,3,2.3c0.2,0.4,0.3,0.9,0.4,1.4   C11.2,4,11.3,4,11.5,4c0.9,0,1.9,0,2.8,0c0.5,0,0.6,0.1,0.6,0.6c-0.1,1.8-0.2,3.6-0.3,5.4c-0.1,1.8-0.2,3.5-0.3,5.3   c0,0.8-0.7,1.4-1.6,1.4c-0.7,0-1.3,0-2,0c-2.9,0-5.8,0-8.7,0c-1.1,0-1.7-0.6-1.7-1.7c-0.1-1.9-0.2-3.8-0.3-5.7   C0.1,7.7,0.1,6.1,0,4.5C0,4.1,0.1,4,0.5,4c1,0,1.9,0,2.9,0C3.5,4,3.6,4,3.6,4z M9.5,7.5c0.1-0.1,0.1-0.2,0.2-0.3   C9.8,7,9.8,6.9,9.6,6.8C9.1,6.6,8.7,6.4,8.3,6.3C7.4,6.1,6.5,6.1,5.7,6.7c-0.6,0.4-0.9,1-0.8,1.8C5,9.3,5.6,9.7,6.2,10.1   c0.5,0.2,1,0.4,1.4,0.6c0.4,0.2,0.8,0.4,1.2,0.7c0.3,0.2,0.5,0.6,0.5,1c0,0.7-0.4,1.2-1.2,1.4c-1.1,0.3-2,0-2.9-0.6   C5.3,13,5.1,12.9,5,12.8c-0.1,0.2-0.3,0.4-0.4,0.6c1,1,3.1,1.4,4.3,0.8c0.6-0.3,1-0.8,1.2-1.5c0.2-1-0.1-1.7-1-2.2   C8.5,10.2,7.9,10,7.3,9.7C6.8,9.5,6.4,9.4,6,9C5.6,8.6,5.5,8,5.9,7.5c0.4-0.6,1-0.7,1.7-0.7C8.3,6.9,8.9,7.1,9.5,7.5z M10.1,4   C10,2.8,9.6,1.9,8.6,1.3C7.7,0.8,6.8,0.9,6,1.5C5.2,2.1,4.9,3,4.8,4C6.6,4,8.3,4,10.1,4z"/>
	<linearGradient id="SVGID_2_" gradientUnits="userSpaceOnUse" x1="40.2609" y1="1.2954" x2="40.2609" y2="14.6741">
		<stop offset="0" style="stop-color:#EA420A"/>
		<stop offset="1" style="stop-color:#E96E00"/>
	</linearGradient>
	<path class="st1" d="M38.5,9.9c1.4-1,3-0.6,3.9,0.4c0.9,1,0.9,2.5,0.1,3.6c-0.7,0.9-2.3,1.6-4,0.5c0,0.4,0,0.7,0,1   c0,0.7,0,1.4,0,2.1c0,0.2-0.1,0.3-0.3,0.3c-0.8,0-0.7,0.1-0.7-0.7c0-2.4,0-4.8,0-7.3c0-0.4,0-0.4,0.4-0.4   C38.6,9.2,38.5,9.2,38.5,9.9z M38.5,12c0,1,0.8,1.8,1.8,1.8c1,0,1.8-0.8,1.8-1.8c0-1-0.8-1.8-1.8-1.8C39.3,10.3,38.5,11.1,38.5,12z   "/>
	<linearGradient id="SVGID_3_" gradientUnits="userSpaceOnUse" x1="20.8939" y1="1.2954" x2="20.8939" y2="14.6741">
		<stop offset="0" style="stop-color:#EA420A"/>
		<stop offset="1" style="stop-color:#E96E00"/>
	</linearGradient>
	<path class="st2" d="M21.1,14.9c-1.2,0-2.1-0.3-3-0.9c-0.3-0.2-0.3-0.3-0.1-0.6c0.4-0.6,0.3-0.6,0.9-0.2c0.9,0.6,1.8,0.8,2.8,0.5   c0.2-0.1,0.3-0.1,0.5-0.2c0.8-0.5,0.9-1.4,0.2-2c-0.3-0.3-0.8-0.5-1.2-0.6c-0.5-0.2-1.1-0.4-1.6-0.6c-0.4-0.2-0.8-0.5-1.1-0.8   c-0.7-0.9-0.5-2.2,0.5-3c0.8-0.6,1.7-0.7,2.7-0.5c0.5,0.1,1,0.4,1.5,0.6c0.3,0.1,0.3,0.2,0.1,0.5C23,7.6,23,7.6,22.4,7.3   C21.7,7,20.9,6.8,20.1,7c-0.6,0.2-1,0.7-1,1.2c0,0.3,0.1,0.6,0.4,0.8c0.3,0.2,0.7,0.4,1.1,0.6c0.6,0.3,1.3,0.4,1.8,0.7   c0.4,0.2,0.8,0.5,1.1,0.9c0.8,1,0.3,2.6-0.9,3.2C22.1,14.8,21.6,14.9,21.1,14.9z"/>
	<linearGradient id="SVGID_4_" gradientUnits="userSpaceOnUse" x1="27.3724" y1="1.2954" x2="27.3724" y2="14.6741">
		<stop offset="0" style="stop-color:#EA420A"/>
		<stop offset="1" style="stop-color:#E96E00"/>
	</linearGradient>
	<path class="st3" d="M25.8,9.7c0.4-0.1,0.9-0.3,1.3-0.4c1.4-0.2,2.9,1,2.9,2.4c0,0.9,0,1.9,0,2.8c0,0.2-0.1,0.3-0.3,0.3   c-0.8,0-0.8,0.1-0.8-0.8c0-0.7,0-1.5,0-2.2c0-0.9-0.7-1.6-1.6-1.6c-0.9,0-1.6,0.7-1.6,1.6c0,0.8,0,1.7,0,2.5c0,0.3,0,0.4-0.4,0.4   c-0.8,0-0.7,0.1-0.7-0.7c0-2.6,0-5.2,0-7.8c0-0.4,0-0.4,0.4-0.4c0.7,0,0.7-0.1,0.7,0.6C25.8,7.6,25.8,8.7,25.8,9.7z"/>
	<linearGradient id="SVGID_5_" gradientUnits="userSpaceOnUse" x1="52.9434" y1="1.2954" x2="52.9434" y2="14.6741">
		<stop offset="0" style="stop-color:#EA420A"/>
		<stop offset="1" style="stop-color:#E96E00"/>
	</linearGradient>
	<path class="st4" d="M51.3,12.4c0,0.2,0.1,0.3,0.1,0.4c0.3,0.6,0.8,1,1.5,1c0.7,0.1,1.4,0,1.9-0.5c0.2-0.2,0.3-0.1,0.4,0.1   c0.4,0.6,0.4,0.7-0.2,1.1c-1.2,0.7-3.1,0.6-4.1-0.7c-0.7-0.9-0.8-1.9-0.3-2.9c0.5-1,1.3-1.6,2.4-1.6c1.3-0.1,2.5,1,2.7,2.3   c0,0.2,0,0.3,0.1,0.5c0,0.3-0.1,0.4-0.4,0.4c-1.2,0-2.4,0-3.5,0C51.6,12.4,51.5,12.4,51.3,12.4z M54.5,11.4c-0.3-0.7-1-1.2-1.8-1.1   c-0.7,0.1-1.2,0.5-1.3,1.1C52.5,11.4,53.5,11.4,54.5,11.4z"/>
	<linearGradient id="SVGID_6_" gradientUnits="userSpaceOnUse" x1="46.6688" y1="1.2954" x2="46.6688" y2="14.6741">
		<stop offset="0" style="stop-color:#EA420A"/>
		<stop offset="1" style="stop-color:#E96E00"/>
	</linearGradient>
	<path class="st5" d="M45.1,12.4c0.1,0.7,0.8,1.3,1.6,1.4c0.7,0,1.3-0.1,1.9-0.6c0.1-0.1,0.2-0.1,0.3,0c0,0.1,0.1,0.1,0.1,0.2   c0.3,0.4,0.3,0.5-0.2,0.8c-1.2,0.8-3.4,0.8-4.4-0.6c-0.6-0.9-0.7-1.9-0.3-2.8c0.5-1,1.3-1.5,2.3-1.6c1.5-0.1,2.9,1.3,2.8,2.8   c0,0.3-0.2,0.3-0.4,0.3c-1.2,0-2.4,0-3.6,0C45.3,12.4,45.2,12.4,45.1,12.4z M45.2,11.4c1,0,2,0,3.1,0c-0.1-0.6-0.9-1.1-1.6-1.1   C45.9,10.3,45.2,10.8,45.2,11.4z"/>
	<linearGradient id="SVGID_7_" gradientUnits="userSpaceOnUse" x1="33.7245" y1="1.2954" x2="33.7245" y2="14.6741">
		<stop offset="0" style="stop-color:#EA420A"/>
		<stop offset="1" style="stop-color:#E96E00"/>
	</linearGradient>
	<path class="st6" d="M33.7,14.9c-1.6,0-2.9-1.3-2.9-2.8c0-1.5,1.3-2.8,2.9-2.8c1.6,0,2.9,1.3,2.9,2.8   C36.6,13.6,35.3,14.9,33.7,14.9z M33.7,10.3c-1,0-1.8,0.8-1.8,1.7c0,1,0.8,1.8,1.8,1.8c1,0,1.8-0.8,1.8-1.8   C35.5,11.1,34.7,10.3,33.7,10.3z"/>
</g>
</svg>