<svg xmlns="http://www.w3.org/2000/svg" xmlns:xlink="http://www.w3.org/1999/xlink" version="1.1" id="Layer_1" x="0px" y="0px" viewBox="0 0 78.9 14.7" style="enable-background:new 0 0 78.9 14.7;" xml:space="preserve">
<style type="text/css">
	.st0{fill:#3DAE42;}
	.st1{fill:#4C844B;}
	.st2{fill:#359642;}
	.st3{fill:#3A8D41;}
	.st4{fill:#4FAA42;}
	.st5{fill:#5EB64C;}
	.st6{fill:#238741;}
	.st7{fill:#2A743D;}
	.st8{fill:#57B147;}
	.st9{fill:#89C35F;}
	.st10{fill:#F3A223;}
	.st11{fill:#FAFAFA;}
	.st12{fill:#EEEDED;}
	.st13{fill:#DFDFDE;}
	.st14{fill:#5D5B5B;}
	.st15{fill:#444444;}
</style>
<g>
	<g>
		<path class="st0" d="M64.8,6.3c-0.5-0.3-1-0.6-1.5-0.7c-1.3-0.3-2.4,0.6-2.6,1.9c-0.1,0.7,0,1.3,0.4,1.9c0.6,0.7,1.3,1,2.2,0.8    c0.9-0.2,1.4-0.8,1.6-1.7c0.1-0.3,0.1-0.7,0.1-1.1c0-1.7,0-3.3,0-5c0-0.7,0.5-1.3,1.2-1.4c0.2,0,0.3,0,0.3,0.2c0,2.2,0,4.4,0,6.6    c0,1.5-0.6,2.8-2,3.4c-2,0.9-4.8,0.1-5.3-2.8c-0.2-1.3,0.1-2.5,1.1-3.5c1.2-1.2,3-1.1,4.3-0.4c0.1,0.1,0.1,0.1,0.1,0.2    C64.8,5.3,64.8,5.8,64.8,6.3z"/>
		<path class="st0" d="M44.9,9.6c0.4,0.2,0.7,0.4,1.1,0.5c1.1,0.4,2.2,0,2.7-0.8c0.6-1,0.4-2.4-0.4-3.1c-0.6-0.5-1.4-0.7-2.2-0.4    c-0.8,0.3-1.2,1-1.4,1.8c-0.1,0.3-0.1,0.6-0.1,0.9c0,2,0,4,0,6c0,0.3-0.1,0.3-0.3,0.3c-0.7-0.1-1.2-0.7-1.2-1.4c0-1.8,0-3.5,0-5.3    c0-1.5,0.6-2.7,1.9-3.4c2.1-1.1,5-0.1,5.4,2.9c0.2,1.4-0.2,2.5-1.3,3.5c-1.2,1-3,0.9-4.1,0.3c-0.1-0.1-0.2-0.1-0.2-0.2    C44.9,10.5,44.9,10.1,44.9,9.6z"/>
		<path class="st0" d="M55.7,8.4c-0.9,0-1.8,0-2.7,0c-0.3,0-0.3,0.1-0.2,0.3c0.4,1.4,2.2,2,3.3,1.1c0.2-0.2,0.4-0.4,0.6-0.6    c0.1-0.1,0.2-0.1,0.3,0c0.3,0.2,0.6,0.4,0.9,0.6c0.1,0.1,0.1,0.2,0.1,0.3c-0.5,0.9-1.3,1.3-2.3,1.5c-1.9,0.4-4-1-4.5-2.9    c-0.4-1.5,0.3-3.1,1.6-4.1C54,3.9,55.7,4,57,4.9c1.2,0.8,1.7,2,1.6,3.4c0,0.2-0.1,0.2-0.2,0.2C57.5,8.4,56.6,8.4,55.7,8.4z     M52.9,7.1c1.3,0,2.5,0,3.7,0c0.3,0,0.3,0,0.2-0.3c-0.3-0.7-1.3-1.2-2-1.1C54,5.7,53.2,6.3,52.9,7.1z"/>
		<path class="st0" d="M77,9.1c0,0.6,0,1.2,0,1.8c0,0.1-0.1,0.2-0.2,0.2c-1.1,0.8-2.3,0.8-3.5,0.2c-1.2-0.6-1.7-1.7-1.9-3    c-0.2-1.6,0.5-3,1.9-3.7c1.3-0.6,2.7-0.6,4,0.2c1,0.6,1.4,1.5,1.5,2.6c0,1.3,0,2.6,0,4c0,0.3-0.1,0.3-0.3,0.2    c-0.7-0.1-1.2-0.7-1.2-1.4c0-0.8,0-1.6,0-2.4c0.1-1.3-0.8-1.9-1.8-2.1c-1.1-0.1-2,0.4-2.4,1.4c-0.4,1.1,0,2.2,0.9,2.8    c0.9,0.6,2,0.4,2.7-0.5C76.8,9.4,76.9,9.3,77,9.1z"/>
		<path class="st0" d="M34.5,4.3c-0.6,1-1.1,2.1-1.9,2.9c0,0,0,0,0,0c1,0.4,1.3,1.1,1.3,2c0,0.7,0,1.3,0,2c0,0.2-0.1,0.3-0.3,0.2    c-0.7-0.1-1.2-0.7-1.2-1.4c0-0.3,0-0.7,0-1c-0.1-0.5-0.4-0.8-1-0.8c-0.4,0-0.8,0-1.1,0c-0.2,0-0.3,0.1-0.3,0.3c0,0.9,0,1.8,0,2.6    c0,0.3-0.1,0.3-0.3,0.3c-0.7-0.1-1.2-0.7-1.2-1.4c0-2.6,0-5.1,0-7.7c0-0.7,0.5-1.3,1.2-1.4c0.2,0,0.3,0,0.3,0.2c0,1.7,0,3.5,0,5.2    c0,0.2,0,0.3,0.3,0.3c0.6,0,1-0.2,1.2-0.7c0.3-0.6,0.7-1.2,1-1.7c0.1-0.1,0.1-0.2,0.2-0.2C33.4,4.3,34,4.3,34.5,4.3z"/>
		<path class="st0" d="M27.6,7.9c0,2.1-1.6,3.7-3.7,3.8c-1.9,0.1-3.8-1.4-3.8-3.7c0-2.2,1.6-3.8,3.7-3.8C26,4.2,27.6,5.8,27.6,7.9z     M26.1,8c0-0.8-0.3-1.4-0.9-1.9c-1-0.8-3.1-0.6-3.4,1.4c-0.2,1.2,0.3,2.2,1.2,2.6C24.3,10.7,26.1,9.9,26.1,8z"/>
		<path class="st0" d="M38.5,11.7c-2.1,0-3.7-1.6-3.7-3.7c0-2.1,1.6-3.8,3.7-3.8c2.1,0,3.8,1.7,3.8,3.8    C42.3,10.1,40.7,11.7,38.5,11.7z M36.4,7.9c0,1.5,1,2.5,2.5,2.3c1-0.1,1.8-1,1.8-2.2c0-0.9-0.3-1.7-1.1-2.2    C38.3,5.2,36.4,5.8,36.4,7.9z"/>
		<path class="st0" d="M15.7,6.6c0-0.9,0-1.8,0-2.8c0-0.7,0.6-1.3,1.2-1.3c0.2,0,0.3,0,0.3,0.2c0,0.4,0,0.9,0,1.3    c0,0.2,0,0.3,0.3,0.3c0.7,0,1.3,0,2,0c0.2,0,0.3,0.1,0.3,0.3c0,0.3,0,0.7,0,1c0,0.2-0.1,0.2-0.2,0.2c-0.7,0-1.3,0-2,0    c-0.2,0-0.3,0-0.3,0.3c0,1.1,0,2.2,0,3.3c0,0.6,0.2,0.8,0.8,0.8c0.5,0,1,0,1.5,0c0.2,0,0.2,0,0.2,0.2c0,0.3,0,0.7,0,1    c0,0.1,0,0.2-0.2,0.2c-0.6,0-1.3,0-1.9,0c-1.2-0.1-1.9-0.9-1.9-2.2C15.7,8.5,15.7,7.5,15.7,6.6z"/>
		<path class="st0" d="M69.9,7.9c0,1.1,0,2.2,0,3.4c0,0.2-0.1,0.3-0.3,0.2c-0.7-0.1-1.2-0.6-1.2-1.4c0-1.9,0-3.8,0-5.7    c0-0.2,0-0.2,0.2-0.2c0.3,0,0.7,0,1,0c0.2,0,0.3,0.1,0.3,0.3C69.9,5.7,69.9,6.8,69.9,7.9z"/>
		<path class="st0" d="M70,2.9c0,0.5-0.3,0.9-0.8,0.9c-0.5,0-0.9-0.4-0.9-0.9c0-0.5,0.3-0.9,0.9-0.9C69.6,2,70,2.3,70,2.9z"/>
	</g>
	<g>
		<g>
			<path class="st1" d="M9.3,2.6c0.2,0,0.3,0,0.5,0c0.6,0,1.2,0,1.8,0c0.2,0,0.4,0.1,0.4,0.3c0,0.2,0,0.3,0,0.5c0,1.6,0,3.2,0,4.7     c0,0.1,0,0.1,0,0.2c-0.1,0-0.2,0-0.3,0c-0.2,0.1-0.3,0.1-0.5,0c0-0.1,0-0.1,0.1-0.2c0.2-0.4,0.2-0.9,0.1-1.4     C11.3,6,11,5.4,10.4,5C9.7,4.5,9,4.3,8.1,4.5c-0.7,0.1-1.2,0.5-1.6,1C6.2,5.9,6,6.3,6,6.8c-0.1,0-0.1-0.1-0.1-0.2     c0.1,0,0-0.1,0-0.2c0-0.6,0-1.1,0-1.7c0-0.4,0-0.9,0-1.3C6,3.4,6,3.4,6,3.3C6.6,3,7.3,2.8,7.9,2.8L9.3,2.6z M7.5,3     C7.2,3,7,3.1,6.8,3.2c0,0-0.1,0-0.1,0.1c0,0.1,0.1,0.1,0.2,0c0.2,0,0.5-0.1,0.7-0.1c0.3-0.1,0.5,0,0.8-0.1c0.2,0,0.3,0,0.5,0     C9.4,3,10,3,10.5,3c0.3,0,0.7,0.1,1,0.1c0.1,0,0.2,0.1,0.2,0c0-0.1,0-0.2-0.1-0.2c-0.1-0.1-0.1-0.1-0.2-0.1c-0.5,0-1,0-1.5,0     c-0.4,0-0.8,0-1.2,0.1C8.3,2.9,7.9,2.9,7.5,3z"/>
			<path class="st2" d="M0,11c0-0.4,0-0.9,0-1.3c0-1,0-1.9,0-2.9c0.1,0,0.1,0,0.2,0C0.3,7,0.4,7,0.5,7.1c0,0.6,0.2,1.2,0.5,1.7     c0.6,0.7,1.3,1.1,2.2,1.1c0.4,0,0.7-0.1,1-0.2c0.1,0,0.2-0.1,0.2-0.1c0.1,0,0.2,0.1,0.2,0.2c0,0,0,0,0,0c-0.1,0-0.1,0-0.2,0     c-0.4,0.1-0.8,0.3-1.2,0.5c-0.4,0.2-0.7,0.5-1,0.8c-0.2,0.3-0.4,0.5-0.6,0.8c0-0.1-0.1-0.1-0.2-0.1c-0.2-0.1-0.3-0.2-0.5-0.3     C0.7,11.4,0.4,11.2,0,11z"/>
			<path class="st3" d="M11.2,8.3c0.1,0.1,0.3,0.1,0.5,0c0.1,0,0.2,0,0.3,0c0,0.6,0,1.3,0,1.9c-0.1,0.7-0.4,1.4-0.8,1.9     c0,0,0,0,0,0.1c-0.1,0.1-0.1,0.1-0.2,0.2c-0.1,0.1-0.1,0.1-0.2,0.2c0,0,0,0-0.1,0c-0.1-0.1-0.1-0.3-0.2-0.4     c-0.3-0.6-0.7-1.1-1.3-1.5C8.6,10.3,8,10,7.3,9.8c0.1-0.2,0.1-0.2,0.3-0.1C8.1,9.8,8.5,9.9,9,9.8c0.8-0.1,1.4-0.5,1.9-1.1     C11,8.6,11,8.4,11.2,8.3z"/>
			<path class="st4" d="M0.5,7.1C0.4,7,0.3,7,0.2,6.9c-0.1,0-0.1-0.1-0.2,0c0-0.2,0-0.3,0-0.5C0,5.3,0,4.1,0,3     c0.1,0,0.1-0.1,0.2-0.1c-0.1,0.2,0,0.2,0.2,0.2c0.1,0,0.2,0,0.3,0c0,0.1,0,0.1,0.1,0.1c0.6,0.3,1.1,0.6,1.7,0.9     c0.2,0.1,0.4,0.1,0.5,0.3c0,0-0.1,0-0.1,0C2.2,4.6,1.7,4.8,1.3,5.3C0.8,5.8,0.5,6.4,0.5,7.1z"/>
			<path class="st5" d="M0.2,2.9C0.1,2.9,0.1,3.1,0,3c0-0.3,0.1-0.4,0.4-0.4c0.7,0,1.3,0,2,0c0.2,0,0.4,0,0.5,0c0.3,0,0.6,0.1,1,0.1     c0,0,0.1,0,0.1,0C4.6,2.8,5.2,3,5.8,3.3c0.1,0,0.2,0,0.2,0C6,3.4,6,3.4,6,3.5c0,0.4,0,0.9,0,1.3C5.8,4.7,5.6,4.6,5.4,4.5     C4.7,4.1,3.9,3.7,3.1,3.3C3,3.2,2.9,3.2,2.9,3.1c0.1,0,0.2,0,0.4,0c0.4,0,0.7,0.1,1,0.1c0.2,0,0.5,0.1,0.7,0.1c0,0,0.1,0,0.1,0     c0,0,0,0-0.1-0.1C4.7,3,4.3,3,3.9,2.9C3.6,2.9,3.3,2.8,3,2.8c-0.5,0-0.9-0.1-1.4,0c-0.3,0-0.6,0-0.9,0c-0.1-0.1-0.3-0.1-0.4,0     C0.3,2.9,0.2,2.9,0.2,2.9z"/>
			<path class="st6" d="M0,11c0.4,0.1,0.7,0.3,1,0.5c0.2,0.1,0.3,0.2,0.5,0.3c0.1,0,0.1,0.1,0.2,0.1c0,0.1-0.1,0.1-0.1,0.2     c-0.2,0.2-0.3,0.5-0.3,0.8c-0.1,0.2-0.1,0.4-0.2,0.6c-0.1,0-0.2,0-0.2,0c-0.1,0-0.3,0-0.4,0c-0.2,0-0.4-0.2-0.4-0.4     c0-0.2,0-0.5,0-0.7C0,12,0,11.5,0,11z"/>
			<path class="st7" d="M11.2,8.3C11,8.4,11,8.6,10.9,8.8c-0.5,0.6-1.1,1-1.9,1.1c-0.5,0.1-0.9,0-1.3-0.2C7.5,9.6,7.5,9.6,7.3,9.8     c0,0-0.1,0-0.1,0c0,0,0,0-0.1,0c0-0.1,0-0.1,0.1-0.1c0.2-0.1,0.2-0.2,0.1-0.4c0,0,0-0.1,0-0.1c0.5,0.3,1.1,0.5,1.8,0.4     c0.7-0.1,1.2-0.5,1.6-1.1C11,7.9,11.1,7.3,11,6.8c-0.2-1.4-1.5-2.2-2.9-1.9C6.6,5.2,5.8,7,6.7,8.4c0,0,0,0.1,0.1,0.1     c-0.2,0-0.3-0.1-0.4-0.1c0,0,0,0,0,0C6.1,8.1,6,7.8,6,7.4C6,7.2,6,7,6,6.8c0-0.5,0.2-0.9,0.5-1.3c0.4-0.5,1-0.9,1.6-1     C9,4.3,9.7,4.5,10.4,5c0.6,0.4,0.9,1,1,1.7c0.1,0.5,0,0.9-0.1,1.4C11.2,8.1,11.2,8.2,11.2,8.3z"/>
			<path class="st8" d="M2.9,3.1c0,0.1,0.2,0.2,0.3,0.2c0.8,0.4,1.5,0.8,2.3,1.2C5.6,4.6,5.8,4.7,6,4.8c0,0.6,0,1.1,0,1.7     c0,0.1,0,0.1,0,0.2C5.8,5.9,5.4,5.3,4.7,4.8C4.2,4.5,3.6,4.4,2.9,4.4C2.8,4.2,2.6,4.2,2.4,4.1C1.9,3.8,1.3,3.5,0.8,3.2     c0,0-0.1,0-0.1-0.1C0.8,3.1,1,3,1.1,3C1.7,3,2.3,3,2.9,3.1z"/>
			<path class="st6" d="M2.9,4.4c0.7,0,1.3,0.1,1.8,0.4c0.6,0.4,1.1,1,1.2,1.8c0,0.1,0,0.1,0.1,0.2C6,7,6,7.2,6,7.4     C5.9,7.7,5.8,8.1,5.7,8.4c-0.2,0-0.3,0.1-0.5,0.2c0,0,0,0,0-0.1c0,0,0,0,0-0.1C6,7.2,5.6,5.7,4.3,5C4,4.8,3.5,4.8,3.1,4.8     C3,4.7,2.8,4.6,2.8,4.4C2.8,4.4,2.9,4.4,2.9,4.4z"/>
			<path class="st9" d="M7.5,3c0.4-0.1,0.8-0.1,1.2-0.2c0.4,0,0.8,0,1.2-0.1c0.5,0,1,0,1.5,0c0.1,0,0.1,0,0.2,0.1     c0.1,0.1,0.1,0.1,0.1,0.2c0,0.1-0.1,0-0.2,0c-0.3,0-0.7-0.1-1-0.1c-0.6,0-1.2,0-1.7,0c-0.2,0-0.3,0-0.5,0c0-0.1-0.1,0-0.2,0     c-0.2,0-0.4,0-0.5,0C7.6,3.1,7.5,3.1,7.5,3z"/>
			<path class="st5" d="M7.5,3c0,0.1,0.1,0.1,0.1,0.1c0.2,0,0.4,0,0.5,0c0.1,0,0.1,0,0.2,0C8.1,3.2,7.8,3.2,7.5,3.2     C7.3,3.3,7,3.3,6.8,3.4c-0.1,0-0.1,0-0.2,0c0-0.1,0.1-0.1,0.1-0.1C7,3.1,7.2,3,7.5,3z"/>
			<path class="st9" d="M1.6,12.2c0-0.1,0.1-0.1,0.1-0.2c0.2-0.3,0.4-0.5,0.6-0.8c0.3-0.3,0.7-0.6,1-0.8c0.4-0.2,0.8-0.4,1.2-0.5     c0.1,0,0.1,0,0.2,0c0,0,0,0.1,0,0.1c0.2,0.4,0.5,0.7,0.8,1C5.7,11,5.8,11.1,6,11.1c0,0,0,0,0,0c0,0.3,0,0.6,0,0.9     c0,0.1,0,0.1,0,0.2c-0.5,0-1,0-1.6,0c-0.9,0-1.7,0-2.6,0C1.7,12.2,1.7,12.2,1.6,12.2z"/>
			<path class="st10" d="M5.2,8.5c0.2,0,0.3-0.1,0.5-0.2c0.1,0,0.1,0,0.2,0C6,8.7,6,9,6,9.3c0,0,0,0.1,0,0.1c0.1,0,0.1-0.1,0.1-0.1     C6.2,9,6.3,8.7,6.3,8.4c0.2,0,0.3,0.1,0.4,0.1c0,0,0,0,0,0c0,0,0,0,0,0C7,8.7,7.2,8.9,7.3,9.1c0,0,0,0.1,0,0.1     c0.1,0.2,0.1,0.3-0.1,0.4c-0.1,0-0.1,0.1-0.1,0.1c-0.2,0.3-0.4,0.6-0.7,0.8c-0.1,0.1-0.3,0.3-0.5,0.3c-0.2,0-0.3-0.2-0.5-0.3     C5.2,10.4,5,10.1,4.8,9.8c0-0.1-0.1-0.2-0.2-0.2C4.5,9.4,4.6,9.3,4.6,9.1c0,0,0,0,0,0c0.1,0,0,0,0-0.1C4.8,8.9,5,8.7,5.2,8.5     C5.2,8.6,5.2,8.5,5.2,8.5L5.2,8.5z"/>
			<path class="st7" d="M4.6,9.1c0,0.1-0.1,0.3-0.1,0.4c-0.1,0-0.2,0-0.2,0.1C4,9.8,3.6,9.9,3.3,9.9c-0.9,0-1.7-0.4-2.2-1.1     C0.7,8.2,0.5,7.7,0.5,7.1c0-0.7,0.3-1.3,0.7-1.8c0.4-0.5,0.9-0.7,1.6-0.8c0,0.2,0.2,0.2,0.3,0.3c0,0-0.1,0-0.1,0     C2.2,4.8,1.2,5.5,1,6.5C0.8,7.2,0.9,7.9,1.3,8.5c0,0,0,0.1,0,0.1c0.7,1,2.1,1.3,3.1,0.7C4.5,9.2,4.6,9.1,4.6,9.1z"/>
			<path class="st4" d="M4.8,9.8c0.2,0.3,0.4,0.6,0.7,0.8c0.1,0.1,0.3,0.2,0.5,0.3c0,0.1,0,0.1,0,0.2c-0.1,0-0.2-0.1-0.3-0.2     c-0.3-0.3-0.6-0.6-0.8-1C4.8,9.9,4.8,9.8,4.8,9.8C4.8,9.8,4.8,9.8,4.8,9.8z"/>
			<path class="st5" d="M6,12c0-0.3,0-0.6,0-0.9c0.3,0,0.5-0.3,0.7-0.5c0.2-0.3,0.4-0.5,0.6-0.8c0,0,0.1,0,0.1,0     C8,10,8.6,10.3,9.1,10.7c0.5,0.4,1,0.9,1.3,1.5c-0.5,0-0.9-0.1-1.4-0.1c-0.3,0-0.6,0-0.9,0c-0.2,0-0.4,0-0.7,0C7,12,6.5,12,6,12z     "/>
			<path class="st4" d="M6,12c0.5,0,1,0,1.5,0.1c0.2,0,0.4,0,0.7,0c0.3,0,0.6,0,0.9,0c0.5,0,0.9,0.1,1.4,0.1     c0.1,0.1,0.1,0.3,0.2,0.4c-0.2,0.2-0.5,0.4-0.8,0.5c0-0.1,0-0.1-0.1-0.1C9.4,13,9,13,8.5,13c-0.3,0-0.5,0-0.7,0     c-0.6,0-1.2-0.1-1.8-0.1c0-0.2,0-0.4,0-0.7C6,12.1,6,12,6,12z"/>
			<path class="st9" d="M2.9,3.1C2.3,3,1.7,3,1.1,3C1,3,0.8,3.1,0.7,3.1c-0.1,0-0.2,0-0.3,0c-0.2,0-0.2,0-0.2-0.2     c0,0,0.1-0.1,0.1-0.1c0.1-0.1,0.2,0,0.4,0c0.3,0,0.6,0,0.9,0c0.5,0,0.9,0,1.4,0c0.3,0,0.6,0,0.9,0.1C4.3,3,4.7,3,5.1,3.2     c0,0,0.1,0,0.1,0.1c0,0.1-0.1,0-0.1,0c-0.3,0-0.5-0.1-0.7-0.1c-0.3,0-0.7-0.1-1-0.1C3.1,3.1,3,3.1,2.9,3.1z"/>
			<path class="st4" d="M0.7,2.8c-0.1,0-0.3,0-0.4,0C0.4,2.7,0.5,2.6,0.7,2.8z"/>
			<path class="st5" d="M6,12.2c0,0.2,0,0.4,0,0.7c0,0,0,0.1,0,0.1c-1,0-2.1,0-3.1,0c-0.5,0-1,0-1.5,0c0,0-0.1,0-0.1,0     c0.1-0.3,0.2-0.5,0.3-0.8c0.1,0,0.1,0,0.2,0c0.9,0,1.7,0,2.6,0C4.9,12.2,5.4,12.2,6,12.2z"/>
			<path class="st4" d="M1.3,13c0,0,0.1,0,0.1,0c0.5,0,1,0,1.5,0c1-0.1,2.1,0,3.1,0c0.1,0.2,0,0.4,0,0.6c-1.1,0-2.1,0-3.2,0     c-0.4,0-0.8,0-1.2,0c-0.2,0-0.3,0-0.5,0C1.1,13.3,1.2,13.1,1.3,13z"/>
			<path class="st11" d="M6.7,8.4C5.8,7,6.6,5.2,8.2,4.8c1.4-0.3,2.6,0.6,2.9,1.9c0.1,0.6,0,1.1-0.3,1.6c-0.3-0.1-0.6,0-0.9,0     c-0.1,0-0.1,0-0.2-0.1c0,0,0-0.1,0.1-0.1c0.8-0.9,0.3-2.3-0.8-2.6c-0.2,0-0.4-0.1-0.6,0c0.3,0.4,0.3,0.8,0,1.1     C8.2,6.8,8,6.9,7.8,6.9c-0.3,0-0.5-0.2-0.7-0.4C7.1,6.7,7,6.8,7,7C7,7.5,7.1,7.9,7.5,8.3c0,0.1-0.1,0.1-0.1,0.1     C7.1,8.4,6.9,8.4,6.7,8.4z"/>
			<path class="st12" d="M9.7,8.3c0,0.1,0.1,0.1,0.2,0.1c0.3,0,0.6,0,0.9,0c-0.4,0.6-0.9,1-1.6,1.1c-0.6,0.1-1.2,0-1.8-0.4     C7.2,8.9,7,8.7,6.8,8.5c0,0,0,0,0,0c0,0,0,0,0,0c0,0,0-0.1-0.1-0.1c0.2,0,0.4,0,0.7,0c0.1,0,0.1,0,0.1-0.1c0,0,0,0,0.1,0     c0.4,0.3,0.8,0.4,1.3,0.4C9.2,8.7,9.4,8.5,9.7,8.3z"/>
			<path class="st13" d="M6.3,8.4c0,0.3-0.1,0.6-0.1,0.9c0,0.1,0,0.1-0.1,0.1C6,9.4,6,9.3,6,9.3C6,9,6,8.7,5.9,8.4     C6,8.3,6.1,8.4,6.3,8.4C6.3,8.4,6.3,8.4,6.3,8.4z"/>
			<path class="st3" d="M7.2,9.8c-0.2,0.3-0.4,0.6-0.6,0.8c-0.2,0.2-0.4,0.4-0.7,0.5c0,0,0,0,0,0c0-0.1,0-0.1,0-0.2     c0.2,0,0.4-0.1,0.5-0.3C6.8,10.4,7,10.1,7.2,9.8C7.2,9.8,7.2,9.8,7.2,9.8z"/>
			<path class="st4" d="M6.2,8.4c-0.1,0-0.2-0.1-0.3,0c-0.1,0-0.1,0-0.2,0C5.8,8.1,5.9,7.7,6,7.4C6,7.8,6.1,8.1,6.2,8.4z"/>
			<path class="st11" d="M1.3,8.5C0.9,7.9,0.8,7.2,1,6.5c0.3-1,1.2-1.7,2.1-1.8c0,0,0.1,0,0.1,0C3.5,4.8,4,4.8,4.3,5     C5.6,5.7,6,7.2,5.3,8.4c0,0,0,0,0,0.1c-0.3,0-0.5,0-0.8,0c0,0,0.1,0,0.1-0.1c0.7-0.7,0.7-1.8-0.1-2.4c-0.3-0.2-0.6-0.3-1-0.3     c0.2,0.5,0.2,0.9-0.2,1.1C2.9,7,2.5,6.8,2.2,6.4c-0.3,0.5-0.3,1.4,0.4,2c-0.1,0-0.2,0-0.3,0C1.9,8.5,1.6,8.5,1.3,8.5z"/>
			<path class="st12" d="M4.5,8.4c0.2,0.1,0.5,0,0.8,0c0,0,0,0,0,0.1c0,0,0,0,0,0c0,0,0,0,0,0.1C5,8.7,4.8,8.9,4.7,9.1     c0,0-0.1,0,0,0.1c0,0,0,0,0,0c-0.1,0-0.1,0-0.2,0.1C3.4,9.8,2,9.5,1.3,8.5c0,0,0,0,0-0.1c0.3,0,0.6,0,0.9,0c0.1,0,0.2,0,0.3,0     C3.2,8.8,3.8,8.8,4.5,8.4z"/>
			<path class="st7" d="M4.6,9.1C4.6,9.1,4.7,9.1,4.6,9.1C4.7,9.1,4.7,9.1,4.6,9.1z"/>
			<path class="st6" d="M5.2,8.6C5.2,8.6,5.2,8.5,5.2,8.6C5.2,8.5,5.2,8.6,5.2,8.6z"/>
			<path class="st7" d="M6.7,8.5C6.7,8.5,6.8,8.5,6.7,8.5C6.7,8.5,6.7,8.5,6.7,8.5z"/>
			<path class="st2" d="M6,13.5c0-0.2,0-0.4,0-0.6c0,0,0-0.1,0-0.1c0.6,0,1.2,0.1,1.8,0.1c0.3,0,0.5,0,0.7,0C9,13,9.4,13,9.8,13     c0.1,0,0.1,0,0.1,0.1c-0.5,0.3-1,0.4-1.5,0.4C7.6,13.6,6.8,13.5,6,13.5z"/>
			<path class="st14" d="M9.7,8.3C9.4,8.5,9.2,8.7,8.8,8.7C8.3,8.8,7.9,8.6,7.5,8.3c0,0,0,0-0.1,0C7.1,7.9,7,7.5,7,7     c0-0.1,0.1-0.3,0.1-0.4c0.2,0.2,0.4,0.4,0.7,0.4c0.2,0,0.4-0.1,0.5-0.2c0.3-0.3,0.3-0.7,0-1.1c0.2,0,0.4,0,0.6,0     C10.1,5.9,10.6,7.3,9.7,8.3C9.7,8.2,9.7,8.3,9.7,8.3z"/>
			<path class="st14" d="M4.5,8.4c-0.6,0.4-1.3,0.4-1.9,0c-0.7-0.6-0.7-1.6-0.4-2C2.5,6.8,2.9,7,3.2,6.7c0.4-0.2,0.5-0.6,0.2-1.1     c0.4,0,0.7,0.1,1,0.3C5.3,6.5,5.3,7.7,4.5,8.4C4.5,8.4,4.5,8.4,4.5,8.4z"/>
		</g>
		<path class="st15" d="M7.9,2.8c0.2,0,0.2-0.1,0.1-0.2C7.8,1.6,7.1,1,6,1C5,0.9,4.1,1.6,3.9,2.7c-0.3,0-0.6,0-1-0.1    C3.2,1.2,4.3,0.2,5.7,0c1.5-0.2,3,0.9,3.3,2.4c0,0,0.1,0.2,0.3,0.2L7.9,2.8z"/>
	</g>
</g>
</svg>