<svg xmlns="http://www.w3.org/2000/svg" xmlns:xlink="http://www.w3.org/1999/xlink" version="1.1" id="Layer_1" x="0px" y="0px" viewBox="0 0 67.4 9.3" style="enable-background:new 0 0 67.4 9.3;" xml:space="preserve">
<style type="text/css">
	.st0{fill:#222222;}
</style>
<g>
	<path class="st0" d="M38.9,9.3c-1.4,0-2.6-0.5-3.6-1.4c-1-1-1.4-2.2-1.3-3.6c0.2-1.8,1.2-3.1,2.9-3.8c0.8-0.3,1.6-0.4,2.4-0.4   c1.5,0.1,2.7,0.7,3.6,1.9c0.6,0.8,0.9,1.8,0.9,2.8c0,1.5-0.7,2.6-1.8,3.5c-0.7,0.5-1.5,0.9-2.4,1C39.3,9.3,39,9.3,38.9,9.3z    M38.8,8.5c0.4,0,0.8,0,1.1-0.2c1.5-0.5,2.5-1.5,2.7-3.1C42.9,4,42.6,2.9,41.7,2c-1.1-1.1-2.5-1.4-4.1-1c-1.6,0.5-2.5,1.6-2.7,3.2   c-0.1,1,0.1,2,0.8,2.8C36.5,8,37.6,8.5,38.8,8.5z"/>
	<path class="st0" d="M49.4,9.2c-0.3,0-0.6,0-0.8,0c0-0.1,0-8.9,0-9c0,0,0.1,0,0.1,0c0.8,0,1.6,0,2.4,0c0.6,0,1.2,0.1,1.7,0.4   c0.6,0.3,1,0.8,1.2,1.4c0.2,0.9,0,1.9-0.9,2.4c-0.2,0.1-0.3,0.2-0.5,0.3c0,0-0.1,0-0.1,0.1c0,0,0,0,0,0.1C52.8,5,53,5.3,53.2,5.6   c0.6,0.9,1.2,1.8,1.8,2.7c0.2,0.3,0.3,0.5,0.5,0.8c0,0,0,0.1,0.1,0.1c-0.1,0-0.1,0-0.2,0c-0.2,0-0.5,0-0.7,0c-0.1,0-0.2,0-0.2-0.1   c-0.6-0.9-1.1-1.8-1.7-2.6c-0.2-0.3-0.4-0.6-0.6-0.8C52,5.3,51.7,5.1,51.4,5c-0.2-0.1-0.4-0.1-0.6-0.1c-0.4,0-0.8,0-1.2,0   c-0.1,0-0.1,0-0.1,0.2c0,0.4,0,0.8,0,1.1c0,0.9,0,1.8,0,2.8C49.4,9,49.4,9.1,49.4,9.2z M49.4,0.9C49.4,0.9,49.4,0.9,49.4,0.9   c0,1.1,0,2.1,0,3.2c0,0.1,0,0.1,0.2,0.1c0.5,0,1,0,1.4,0c0.4,0,0.8-0.1,1.1-0.2C53,3.6,53.2,2.8,53,2.1c-0.1-0.5-0.5-0.8-0.9-1   c-0.4-0.1-0.7-0.2-1.1-0.2c-0.5,0-1,0-1.4,0C49.5,0.9,49.5,0.9,49.4,0.9z"/>
	<path class="st0" d="M8.1,0.2c0,0.1,0,0.2,0,0.3C8.1,0.5,8,0.5,8,0.6C7.6,1.1,7.2,1.6,6.8,2C5.4,3.7,4.1,5.3,2.7,6.9   C2.3,7.4,1.9,7.8,1.5,8.3c0,0-0.1,0.1-0.1,0.1c0.4,0,0.8,0,1.1,0c0.4,0,0.7,0,1.1,0c0.4,0,0.7,0,1.1,0s0.7,0,1.1,0   c0.4,0,0.7,0,1.1,0c0.4,0,0.7,0,1.1,0c0,0.3,0,0.5,0,0.7c-2.7,0-5.4,0-8.1,0C0,9,0,8.9,0.1,8.7C1.4,7.2,2.7,5.6,4,4.1   c0.8-1,1.7-2,2.5-3c0,0,0.1-0.1,0.1-0.2c-0.1,0-0.1,0-0.1,0c0,0-0.1,0-0.1,0c-2,0-3.9,0-5.9,0c-0.1,0-0.1,0-0.2,0   c0-0.2,0-0.5,0-0.7C0.5,0.1,7.9,0.1,8.1,0.2z"/>
	<path class="st0" d="M67.4,9.2c-0.3,0-0.6,0-0.8,0c-0.1,0-0.1-0.1-0.1-0.1c-0.2-0.3-0.3-0.7-0.5-1c-0.3-0.6-0.5-1.2-0.8-1.8   c-0.1-0.1-0.1-0.2-0.3-0.2c-1.3,0-2.6,0-3.9,0c-0.1,0-0.2,0-0.3,0.2c-0.4,0.9-0.9,1.8-1.3,2.7c-0.1,0.1-0.1,0.2-0.3,0.2   c-0.2,0-0.4,0-0.5,0c-0.1,0-0.1,0-0.2,0c0-0.1,0.1-0.1,0.1-0.2c0.8-1.7,1.6-3.5,2.4-5.2c0.5-1.2,1.1-2.3,1.6-3.5   c0.1-0.1,0.1-0.2,0.3-0.2c0.4,0,0.3,0,0.4,0.3c1.3,2.9,2.7,5.8,4,8.7C67.3,9.1,67.4,9.1,67.4,9.2z M64.7,5.4   c-0.2-0.5-0.4-0.9-0.6-1.3c-0.2-0.4-0.4-0.8-0.6-1.3c-0.2-0.4-0.4-0.9-0.6-1.3c-0.1,0.1-1.4,3-1.8,3.7c0,0,0,0.1,0,0.1   C62.3,5.4,63.5,5.4,64.7,5.4z"/>
	<path class="st0" d="M11.6,9.2c0-0.1,0.1-0.1,0.1-0.2c1.4-2.9,2.7-5.8,4.1-8.8c0.1-0.1,0.1-0.2,0.3-0.2c0.4,0,0.3,0,0.4,0.3   c1.4,2.9,2.7,5.8,4.1,8.7c0,0,0,0.1,0.1,0.1c-0.1,0-0.1,0-0.1,0c-0.2,0-0.4,0-0.6,0c-0.1,0-0.2,0-0.2-0.1c-0.4-0.9-0.9-1.8-1.3-2.8   c0,0,0-0.1,0-0.1c0-0.1-0.1-0.1-0.1-0.1c0,0-0.1,0-0.1,0c-1.3,0-2.6,0-3.9,0c-0.2,0-0.2,0-0.3,0.2C13.5,7.2,13,8.1,12.6,9   c-0.1,0.1-0.1,0.2-0.3,0.2c-0.2,0-0.4,0-0.5,0C11.8,9.2,11.7,9.2,11.6,9.2z M14.3,5.4c0,0,0.1,0,0.1,0c1.1,0,2.2,0,3.3,0   c0,0,0.1,0,0.1,0c-0.2-0.4-0.4-0.9-0.6-1.3c-0.2-0.4-0.4-0.8-0.6-1.3c-0.2-0.4-0.4-0.9-0.6-1.3C16,1.6,14.3,5.2,14.3,5.4z"/>
	<path class="st0" d="M24.8,9.2c0-3,0-6,0-9c0.1,0,0.1,0,0.1,0c0.2,0,0.4,0,0.6,0c0.1,0,0.1,0,0.1,0.1c0,0,0,0.1,0,0.1   c0,2.6,0,5.2,0,7.8c0,0.1,0,0.1,0,0.2c0.1,0,0.2,0,0.2,0c1.3,0,2.7,0,4,0c0.2,0,0.2,0,0.2,0.2c0,0.2,0,0.3,0,0.5   C30,9.2,25,9.2,24.8,9.2z"/>
</g>
</svg>